<?xml version="1.0" standalone="no"?>
<!DOCTYPE svg PUBLIC "-//W3C//DTD SVG 1.1//EN" "http://www.w3.org/Graphics/SVG/1.1/DTD/svg11.dtd" >
<svg xmlns="http://www.w3.org/2000/svg">
  <metadata>Created by iconfont</metadata>
  <defs>
  <font id="vma-formula-grid-iconfont" horiz-adv-x="1024">
    <font-face
      font-family="vma-formula-grid-iconfont"
      font-weight="400"
      font-stretch="normal"
      units-per-em="1024"
      ascent="896"
      descent="-128"
    />
      <missing-glyph />
      
      <glyph glyph-name="merge-cells" unicode="&#58943;" d="M482.2 387.6L331.3 507c-3 2.4-7.3 0.2-7.3-3.6V418H184V712h204v-128c0-2.2 1.8-4 4-4h60c2.2 0 4 1.8 4 4V752c0 15.5-12.5 28-28 28H144c-15.5 0-28-12.5-28-28v-736c0-15.5 12.5-28 28-28h284c15.5 0 28 12.5 28 28V184c0 2.2-1.8 4-4 4h-60c-2.2 0-4-1.8-4-4v-128H184V350h140v-85.4c0-3.8 4.4-6 7.3-3.6l150.9 119.4c2.4 1.8 2.4 5.4 0 7.2zM880 780H596c-15.5 0-28-12.5-28-28v-168c0-2.2 1.8-4 4-4h60c2.2 0 4 1.8 4 4V712h204v-294H700v85.4c0 3.8-4.3 6-7.3 3.6l-151-119.4c-2.3-1.8-2.3-5.3 0-7.1l151-119.5c2.9-2.3 7.3-0.2 7.3 3.6V350h140v-294H636V184c0 2.2-1.8 4-4 4h-60c-2.2 0-4-1.8-4-4v-168c0-15.5 12.5-28 28-28h284c15.5 0 28 12.5 28 28V752c0 15.5-12.5 28-28 28z"  horiz-adv-x="1024" />
      
      <glyph glyph-name="solit-cells" unicode="&#58969;" d="M938.2 387.6L787.3 507c-3 2.4-7.3 0.2-7.3-3.6V418H636V712h204v-128c0-2.2 1.8-4 4-4h60c2.2 0 4 1.8 4 4V752c0 15.5-12.5 28-28 28H596c-15.5 0-28-12.5-28-28v-736c0-15.5 12.5-28 28-28h284c15.5 0 28 12.5 28 28V184c0 2.2-1.8 4-4 4h-60c-2.2 0-4-1.8-4-4v-128H636V350h144v-85.4c0-3.8 4.4-6 7.3-3.6l150.9 119.4c2.4 1.8 2.4 5.4 0 7.2zM428 780H144c-15.5 0-28-12.5-28-28v-168c0-2.2 1.8-4 4-4h60c2.2 0 4 1.8 4 4V712h204v-294H244v85.4c0 3.8-4.3 6-7.3 3.6l-151-119.4c-2.3-1.8-2.3-5.3 0-7.1l151-119.5c2.9-2.3 7.3-0.2 7.3 3.6V350h144v-294H184V184c0 2.2-1.8 4-4 4h-60c-2.2 0-4-1.8-4-4v-168c0-15.5 12.5-28 28-28h284c15.5 0 28 12.5 28 28V752c0 15.5-12.5 28-28 28z"  horiz-adv-x="1024" />
      
      <glyph glyph-name="border-none" unicode="&#60103;" d="M898.133333 0h-64v42.666667h21.333334v21.333333h42.666666zM774.4 0h-85.333333v42.666667l83.2-2.133334V0z m-145.066667 0h-85.333333v42.666667l83.2-2.133334V0z m-145.066666 0h-85.333334l2.133334 42.666667 83.2-2.133334V0zM341.333333 0h-85.333333l2.133333 42.666667H341.333333v-42.666667zM194.133333 0h-64v64h42.666667v-21.333333h21.333333zM172.8 125.866667h-42.666667l2.133334 83.2h40.533333v-83.2z m0 142.933333h-42.666667l2.133334 83.2h40.533333v-83.2z m0 145.066667h-42.666667l2.133334 83.2 40.533333-2.133334v-81.066666z m0 145.066666h-42.666667l2.133334 83.2 40.533333-2.133333v-81.066667zM172.8 704h-42.666667V768h64v-42.666667h-21.333333zM774.4 725.333333l-85.333333 2.133334V768h83.2v-42.666667z m-145.066667 0l-85.333333 2.133334V768h83.2v-42.666667z m-145.066666 0l-85.333334 2.133334 2.133334 40.533333h83.2v-42.666667z m-145.066667 0l-85.333333 2.133334L256 768h83.2v-42.666667zM898.133333 704h-42.666666V725.333333h-21.333334V768h64zM898.133333 125.866667h-42.666666v83.2h42.666666v-83.2z m0 145.066666h-42.666666v83.2h42.666666v-83.2z m0 142.933334h-42.666666v83.2l42.666666-2.133334v-81.066666z m0 145.066666h-42.666666v83.2l42.666666-2.133333v-81.066667zM857.6 362.66666699999996h-87.466667l2.133334 40.533333h85.333333V362.66666699999996z m-149.333333 0h-87.466667l2.133333 40.533333h85.333334V362.66666699999996z m-149.333334 0h-87.466666v40.533333h87.466666V362.66666699999996z m-149.333333 0h-87.466667v40.533333h87.466667V362.66666699999996z m-149.333333 0H172.8v40.533333h87.466667V362.66666699999996zM535.466667 42.66666699999996l-42.666667 2.133333 2.133333 85.333333h42.666667V42.66666699999996z m0 149.333333l-42.666667 2.133333 2.133333 85.333334h42.666667V192z m0 149.333333l-42.666667 2.133334 2.133333 85.333333 42.666667-2.133333v-85.333334z m0 149.333334h-42.666667l2.133333 87.466666 42.666667-2.133333v-85.333333z m0 149.333333h-42.666667l2.133333 87.466667 42.666667-2.133334v-85.333333z"  horiz-adv-x="1024" />
      
      <glyph glyph-name="border-full" unicode="&#58880;" d="M476.454688 809.502241H89.976988v-724.181145H808.263636V809.502241H476.454688z m-331.04966-55.8829h276.380909v-278.648982H145.405028v278.648982z m0-612.415345v278.648982h276.380909v-278.648982H145.405028z m607.430569 0H476.454688v278.648982h276.380909v-278.648982z m-276.380909 333.766363v278.648982h276.380909v-278.648982H476.454688z"  horiz-adv-x="1142" />
      
      <glyph glyph-name="comma" unicode="&#59064;" d="M297.856 768.341333h425.514667v-425.514666l-170.24-340.394667H340.437333l170.24 340.394667H297.813333V768.341333z"  horiz-adv-x="1024" />
      
      <glyph glyph-name="percent" unicode="&#58956;" d="M341.333333 426.666667a149.333333 149.333333 0 1 1-149.333333 149.333333A149.333333 149.333333 0 0 1 341.333333 426.666667z m0 213.333333a64 64 0 1 0-64-64A64 64 0 0 0 341.333333 640zM682.666667 298.666667a149.333333 149.333333 0 1 1 149.333333-149.333334A149.333333 149.333333 0 0 1 682.666667 298.666667z m0-213.333334a64 64 0 1 0 64 64A64 64 0 0 0 682.666667 85.333333zM842.24 714.24a37.973333 37.973333 0 0 1-53.76 0L181.76 107.52a38.826667 38.826667 0 0 1-11.093333-26.88 37.973333 37.973333 0 0 1 64.853333-26.88L842.24 660.48a37.973333 37.973333 0 0 1 0 53.76z"  horiz-adv-x="1024" />
      
      <glyph glyph-name="remove_digital" unicode="&#58987;" d="M517.973333 322.55999999999995c-9.898667 9.898667-25.770667 9.898667-35.669333 0-4.949333-4.949333-7.338667-11.434667-7.338667-17.749333 0-6.485333 2.389333-12.970667 7.338667-17.749334l82.944-82.944H323.925333c-13.994667 0-25.258667-11.264-25.258666-25.258666 0-13.994667 11.264-25.258667 25.258666-25.258667h241.493334l-82.944-82.944c-9.898667-9.898667-9.898667-25.770667 0-35.669333s25.770667-9.898667 35.669333 0l125.952 125.952c9.898667 9.898667 9.898667 25.770667 0 35.669333L517.973333 322.55999999999995zM731.818667 43.349333m-27.306667 0a27.306667 27.306667 0 1 1 54.613333 0 27.306667 27.306667 0 1 1-54.613333 0ZM947.2 306.346667c32.256 0 68.266667-53.930667 68.266667-126.293334s-36.010667-126.293333-68.266667-126.293333-68.266667 53.930667-68.266667 126.293333 36.010667 126.293333 68.266667 126.293334m0 51.2c-66.048 0-119.466667-79.530667-119.466667-177.493334s53.418667-177.493333 119.466667-177.493333 119.466667 79.530667 119.466667 177.493333-53.418667 177.493333-119.466667 177.493334zM474.112 435.029333m-27.306667 0a27.306667 27.306667 0 1 1 54.613334 0 27.306667 27.306667 0 1 1-54.613334 0ZM947.2 714.24c32.256 0 68.266667-53.930667 68.266667-126.293333s-36.010667-126.293333-68.266667-126.293334-68.266667 53.930667-68.266667 126.293334 36.010667 126.293333 68.266667 126.293333m0 51.2c-66.048 0-119.466667-79.530667-119.466667-177.493333s53.418667-177.493333 119.466667-177.493334 119.466667 79.530667 119.466667 177.493334-53.418667 177.493333-119.466667 177.493333zM670.72 714.24c32.256 0 68.266667-53.930667 68.266667-126.293333s-36.010667-126.293333-68.266667-126.293334-68.266667 53.930667-68.266667 126.293334 36.010667 126.293333 68.266667 126.293333m0 51.2c-66.048 0-119.466667-79.530667-119.466667-177.493333s53.418667-177.493333 119.466667-177.493334 119.466667 79.530667 119.466667 177.493334-53.418667 177.493333-119.466667 177.493333z"  horiz-adv-x="1365" />
      
      <glyph glyph-name="add_digital" unicode="&#58991;" d="M432.298667 730.624l-126.122667-125.952c-9.898667-9.898667-9.898667-25.770667 0-35.669333l125.952-125.952c9.898667-9.898667 25.770667-9.898667 35.669333 0s9.898667 25.770667 0 35.669333l-82.944 82.944H626.346667c13.994667 0 25.258667 11.264 25.258666 25.258667 0 13.994667-11.264 25.258667-25.258666 25.258666H385.024l82.944 82.944c4.949333 4.778667 7.338667 11.264 7.338667 17.749334 0 6.314667-2.389333 12.8-7.338667 17.749333-9.898667 9.898667-25.770667 9.898667-35.669333 0zM731.818667 451.242667m-27.306667 0a27.306667 27.306667 0 1 1 54.613333 0 27.306667 27.306667 0 1 1-54.613333 0ZM947.2 714.24c32.256 0 68.266667-53.930667 68.266667-126.293333s-36.010667-126.293333-68.266667-126.293334-68.266667 53.930667-68.266667 126.293334 36.010667 126.293333 68.266667 126.293333m0 51.2c-66.048 0-119.466667-79.530667-119.466667-177.493333s53.418667-177.493333 119.466667-177.493334 119.466667 79.530667 119.466667 177.493334-53.418667 177.493333-119.466667 177.493333zM474.112 29.866667000000007m-27.306667 0a27.306667 27.306667 0 1 1 54.613334 0 27.306667 27.306667 0 1 1-54.613334 0ZM947.2 309.07733299999995c32.256 0 68.266667-53.930667 68.266667-126.293333s-36.010667-126.293333-68.266667-126.293333-68.266667 53.930667-68.266667 126.293333 36.010667 126.293333 68.266667 126.293333m0 51.2c-66.048 0-119.466667-79.530667-119.466667-177.493333s53.418667-177.493333 119.466667-177.493333 119.466667 79.530667 119.466667 177.493333-53.418667 177.493333-119.466667 177.493333zM670.72 309.07733299999995c32.256 0 68.266667-53.930667 68.266667-126.293333s-36.010667-126.293333-68.266667-126.293333-68.266667 53.930667-68.266667 126.293333 36.010667 126.293333 68.266667 126.293333m0 51.2c-66.048 0-119.466667-79.530667-119.466667-177.493333s53.418667-177.493333 119.466667-177.493333 119.466667 79.530667 119.466667 177.493333-53.418667 177.493333-119.466667 177.493333z"  horiz-adv-x="1365" />
      
      <glyph glyph-name="border-outer" unicode="&#59306;" d="M880 784H144c-17.7 0-32-14.3-32-32v-736c0-17.7 14.3-32 32-32h736c17.7 0 32 14.3 32 32V752c0 17.7-14.3 32-32 32z m-40-728H184V712h656v-656zM484 530h56c4.4 0 8 3.6 8 8v56c0 4.4-3.6 8-8 8h-56c-4.4 0-8-3.6-8-8v-56c0-4.4 3.6-8 8-8zM302 348h56c4.4 0 8 3.6 8 8v56c0 4.4-3.6 8-8 8h-56c-4.4 0-8-3.6-8-8v-56c0-4.4 3.6-8 8-8zM666 348h56c4.4 0 8 3.6 8 8v56c0 4.4-3.6 8-8 8h-56c-4.4 0-8-3.6-8-8v-56c0-4.4 3.6-8 8-8zM484 348h56c4.4 0 8 3.6 8 8v56c0 4.4-3.6 8-8 8h-56c-4.4 0-8-3.6-8-8v-56c0-4.4 3.6-8 8-8zM484 166h56c4.4 0 8 3.6 8 8v56c0 4.4-3.6 8-8 8h-56c-4.4 0-8-3.6-8-8v-56c0-4.4 3.6-8 8-8z"  horiz-adv-x="1024" />
      
      <glyph glyph-name="border-top" unicode="&#59307;" d="M872 752H152c-4.4 0-8-3.6-8-8v-56c0-4.4 3.6-8 8-8h720c4.4 0 8 3.6 8 8v56c0 4.4-3.6 8-8 8zM208 586h-56c-4.4 0-8-3.6-8-8v-56c0-4.4 3.6-8 8-8h56c4.4 0 8 3.6 8 8v56c0 4.4-3.6 8-8 8zM208 88h-56c-4.4 0-8-3.6-8-8v-56c0-4.4 3.6-8 8-8h56c4.4 0 8 3.6 8 8v56c0 4.4-3.6 8-8 8zM208 420h-56c-4.4 0-8-3.6-8-8v-56c0-4.4 3.6-8 8-8h56c4.4 0 8 3.6 8 8v56c0 4.4-3.6 8-8 8zM208 254h-56c-4.4 0-8-3.6-8-8v-56c0-4.4 3.6-8 8-8h56c4.4 0 8 3.6 8 8v56c0 4.4-3.6 8-8 8zM374 420h-56c-4.4 0-8-3.6-8-8v-56c0-4.4 3.6-8 8-8h56c4.4 0 8 3.6 8 8v56c0 4.4-3.6 8-8 8zM374 88h-56c-4.4 0-8-3.6-8-8v-56c0-4.4 3.6-8 8-8h56c4.4 0 8 3.6 8 8v56c0 4.4-3.6 8-8 8zM706 88h-56c-4.4 0-8-3.6-8-8v-56c0-4.4 3.6-8 8-8h56c4.4 0 8 3.6 8 8v56c0 4.4-3.6 8-8 8zM706 420h-56c-4.4 0-8-3.6-8-8v-56c0-4.4 3.6-8 8-8h56c4.4 0 8 3.6 8 8v56c0 4.4-3.6 8-8 8zM872 420h-56c-4.4 0-8-3.6-8-8v-56c0-4.4 3.6-8 8-8h56c4.4 0 8 3.6 8 8v56c0 4.4-3.6 8-8 8zM540 420h-56c-4.4 0-8-3.6-8-8v-56c0-4.4 3.6-8 8-8h56c4.4 0 8 3.6 8 8v56c0 4.4-3.6 8-8 8zM872 88h-56c-4.4 0-8-3.6-8-8v-56c0-4.4 3.6-8 8-8h56c4.4 0 8 3.6 8 8v56c0 4.4-3.6 8-8 8zM540 88h-56c-4.4 0-8-3.6-8-8v-56c0-4.4 3.6-8 8-8h56c4.4 0 8 3.6 8 8v56c0 4.4-3.6 8-8 8zM872 586h-56c-4.4 0-8-3.6-8-8v-56c0-4.4 3.6-8 8-8h56c4.4 0 8 3.6 8 8v56c0 4.4-3.6 8-8 8zM540 586h-56c-4.4 0-8-3.6-8-8v-56c0-4.4 3.6-8 8-8h56c4.4 0 8 3.6 8 8v56c0 4.4-3.6 8-8 8zM872 254h-56c-4.4 0-8-3.6-8-8v-56c0-4.4 3.6-8 8-8h56c4.4 0 8 3.6 8 8v56c0 4.4-3.6 8-8 8zM540 254h-56c-4.4 0-8-3.6-8-8v-56c0-4.4 3.6-8 8-8h56c4.4 0 8 3.6 8 8v56c0 4.4-3.6 8-8 8z"  horiz-adv-x="1024" />
      
      <glyph glyph-name="border-bottom" unicode="&#59308;" d="M872 88H152c-4.4 0-8-3.6-8-8v-56c0-4.4 3.6-8 8-8h720c4.4 0 8 3.6 8 8v56c0 4.4-3.6 8-8 8zM152 182h56c4.4 0 8 3.6 8 8v56c0 4.4-3.6 8-8 8h-56c-4.4 0-8-3.6-8-8v-56c0-4.4 3.6-8 8-8zM152 680h56c4.4 0 8 3.6 8 8v56c0 4.4-3.6 8-8 8h-56c-4.4 0-8-3.6-8-8v-56c0-4.4 3.6-8 8-8zM152 348h56c4.4 0 8 3.6 8 8v56c0 4.4-3.6 8-8 8h-56c-4.4 0-8-3.6-8-8v-56c0-4.4 3.6-8 8-8zM152 514h56c4.4 0 8 3.6 8 8v56c0 4.4-3.6 8-8 8h-56c-4.4 0-8-3.6-8-8v-56c0-4.4 3.6-8 8-8zM318 348h56c4.4 0 8 3.6 8 8v56c0 4.4-3.6 8-8 8h-56c-4.4 0-8-3.6-8-8v-56c0-4.4 3.6-8 8-8zM318 680h56c4.4 0 8 3.6 8 8v56c0 4.4-3.6 8-8 8h-56c-4.4 0-8-3.6-8-8v-56c0-4.4 3.6-8 8-8zM650 680h56c4.4 0 8 3.6 8 8v56c0 4.4-3.6 8-8 8h-56c-4.4 0-8-3.6-8-8v-56c0-4.4 3.6-8 8-8zM650 348h56c4.4 0 8 3.6 8 8v56c0 4.4-3.6 8-8 8h-56c-4.4 0-8-3.6-8-8v-56c0-4.4 3.6-8 8-8zM872 420h-56c-4.4 0-8-3.6-8-8v-56c0-4.4 3.6-8 8-8h56c4.4 0 8 3.6 8 8v56c0 4.4-3.6 8-8 8zM484 348h56c4.4 0 8 3.6 8 8v56c0 4.4-3.6 8-8 8h-56c-4.4 0-8-3.6-8-8v-56c0-4.4 3.6-8 8-8zM872 752h-56c-4.4 0-8-3.6-8-8v-56c0-4.4 3.6-8 8-8h56c4.4 0 8 3.6 8 8v56c0 4.4-3.6 8-8 8zM484 680h56c4.4 0 8 3.6 8 8v56c0 4.4-3.6 8-8 8h-56c-4.4 0-8-3.6-8-8v-56c0-4.4 3.6-8 8-8zM872 254h-56c-4.4 0-8-3.6-8-8v-56c0-4.4 3.6-8 8-8h56c4.4 0 8 3.6 8 8v56c0 4.4-3.6 8-8 8zM484 182h56c4.4 0 8 3.6 8 8v56c0 4.4-3.6 8-8 8h-56c-4.4 0-8-3.6-8-8v-56c0-4.4 3.6-8 8-8zM872 586h-56c-4.4 0-8-3.6-8-8v-56c0-4.4 3.6-8 8-8h56c4.4 0 8 3.6 8 8v56c0 4.4-3.6 8-8 8zM484 514h56c4.4 0 8 3.6 8 8v56c0 4.4-3.6 8-8 8h-56c-4.4 0-8-3.6-8-8v-56c0-4.4 3.6-8 8-8z"  horiz-adv-x="1024" />
      
      <glyph glyph-name="border-left" unicode="&#59309;" d="M208 752h-56c-4.4 0-8-3.6-8-8v-720c0-4.4 3.6-8 8-8h56c4.4 0 8 3.6 8 8V744c0 4.4-3.6 8-8 8zM374 752h-56c-4.4 0-8-3.6-8-8v-56c0-4.4 3.6-8 8-8h56c4.4 0 8 3.6 8 8v56c0 4.4-3.6 8-8 8zM872 752h-56c-4.4 0-8-3.6-8-8v-56c0-4.4 3.6-8 8-8h56c4.4 0 8 3.6 8 8v56c0 4.4-3.6 8-8 8zM540 752h-56c-4.4 0-8-3.6-8-8v-56c0-4.4 3.6-8 8-8h56c4.4 0 8 3.6 8 8v56c0 4.4-3.6 8-8 8zM706 752h-56c-4.4 0-8-3.6-8-8v-56c0-4.4 3.6-8 8-8h56c4.4 0 8 3.6 8 8v56c0 4.4-3.6 8-8 8zM540 586h-56c-4.4 0-8-3.6-8-8v-56c0-4.4 3.6-8 8-8h56c4.4 0 8 3.6 8 8v56c0 4.4-3.6 8-8 8zM872 586h-56c-4.4 0-8-3.6-8-8v-56c0-4.4 3.6-8 8-8h56c4.4 0 8 3.6 8 8v56c0 4.4-3.6 8-8 8zM872 254h-56c-4.4 0-8-3.6-8-8v-56c0-4.4 3.6-8 8-8h56c4.4 0 8 3.6 8 8v56c0 4.4-3.6 8-8 8zM540 254h-56c-4.4 0-8-3.6-8-8v-56c0-4.4 3.6-8 8-8h56c4.4 0 8 3.6 8 8v56c0 4.4-3.6 8-8 8zM540 88h-56c-4.4 0-8-3.6-8-8v-56c0-4.4 3.6-8 8-8h56c4.4 0 8 3.6 8 8v56c0 4.4-3.6 8-8 8zM540 420h-56c-4.4 0-8-3.6-8-8v-56c0-4.4 3.6-8 8-8h56c4.4 0 8 3.6 8 8v56c0 4.4-3.6 8-8 8zM872 88h-56c-4.4 0-8-3.6-8-8v-56c0-4.4 3.6-8 8-8h56c4.4 0 8 3.6 8 8v56c0 4.4-3.6 8-8 8zM872 420h-56c-4.4 0-8-3.6-8-8v-56c0-4.4 3.6-8 8-8h56c4.4 0 8 3.6 8 8v56c0 4.4-3.6 8-8 8zM374 88h-56c-4.4 0-8-3.6-8-8v-56c0-4.4 3.6-8 8-8h56c4.4 0 8 3.6 8 8v56c0 4.4-3.6 8-8 8zM374 420h-56c-4.4 0-8-3.6-8-8v-56c0-4.4 3.6-8 8-8h56c4.4 0 8 3.6 8 8v56c0 4.4-3.6 8-8 8zM706 88h-56c-4.4 0-8-3.6-8-8v-56c0-4.4 3.6-8 8-8h56c4.4 0 8 3.6 8 8v56c0 4.4-3.6 8-8 8zM706 420h-56c-4.4 0-8-3.6-8-8v-56c0-4.4 3.6-8 8-8h56c4.4 0 8 3.6 8 8v56c0 4.4-3.6 8-8 8z"  horiz-adv-x="1024" />
      
      <glyph glyph-name="border-right" unicode="&#59310;" d="M872 752h-56c-4.4 0-8-3.6-8-8v-720c0-4.4 3.6-8 8-8h56c4.4 0 8 3.6 8 8V744c0 4.4-3.6 8-8 8zM706 752h-56c-4.4 0-8-3.6-8-8v-56c0-4.4 3.6-8 8-8h56c4.4 0 8 3.6 8 8v56c0 4.4-3.6 8-8 8zM208 752h-56c-4.4 0-8-3.6-8-8v-56c0-4.4 3.6-8 8-8h56c4.4 0 8 3.6 8 8v56c0 4.4-3.6 8-8 8zM540 752h-56c-4.4 0-8-3.6-8-8v-56c0-4.4 3.6-8 8-8h56c4.4 0 8 3.6 8 8v56c0 4.4-3.6 8-8 8zM374 752h-56c-4.4 0-8-3.6-8-8v-56c0-4.4 3.6-8 8-8h56c4.4 0 8 3.6 8 8v56c0 4.4-3.6 8-8 8zM540 586h-56c-4.4 0-8-3.6-8-8v-56c0-4.4 3.6-8 8-8h56c4.4 0 8 3.6 8 8v56c0 4.4-3.6 8-8 8zM208 586h-56c-4.4 0-8-3.6-8-8v-56c0-4.4 3.6-8 8-8h56c4.4 0 8 3.6 8 8v56c0 4.4-3.6 8-8 8zM208 254h-56c-4.4 0-8-3.6-8-8v-56c0-4.4 3.6-8 8-8h56c4.4 0 8 3.6 8 8v56c0 4.4-3.6 8-8 8zM540 254h-56c-4.4 0-8-3.6-8-8v-56c0-4.4 3.6-8 8-8h56c4.4 0 8 3.6 8 8v56c0 4.4-3.6 8-8 8zM540 88h-56c-4.4 0-8-3.6-8-8v-56c0-4.4 3.6-8 8-8h56c4.4 0 8 3.6 8 8v56c0 4.4-3.6 8-8 8zM540 420h-56c-4.4 0-8-3.6-8-8v-56c0-4.4 3.6-8 8-8h56c4.4 0 8 3.6 8 8v56c0 4.4-3.6 8-8 8zM208 88h-56c-4.4 0-8-3.6-8-8v-56c0-4.4 3.6-8 8-8h56c4.4 0 8 3.6 8 8v56c0 4.4-3.6 8-8 8zM208 420h-56c-4.4 0-8-3.6-8-8v-56c0-4.4 3.6-8 8-8h56c4.4 0 8 3.6 8 8v56c0 4.4-3.6 8-8 8zM706 88h-56c-4.4 0-8-3.6-8-8v-56c0-4.4 3.6-8 8-8h56c4.4 0 8 3.6 8 8v56c0 4.4-3.6 8-8 8zM706 420h-56c-4.4 0-8-3.6-8-8v-56c0-4.4 3.6-8 8-8h56c4.4 0 8 3.6 8 8v56c0 4.4-3.6 8-8 8zM374 88h-56c-4.4 0-8-3.6-8-8v-56c0-4.4 3.6-8 8-8h56c4.4 0 8 3.6 8 8v56c0 4.4-3.6 8-8 8zM374 420h-56c-4.4 0-8-3.6-8-8v-56c0-4.4 3.6-8 8-8h56c4.4 0 8 3.6 8 8v56c0 4.4-3.6 8-8 8z"  horiz-adv-x="1024" />
      
      <glyph glyph-name="border-inner" unicode="&#59311;" d="M872 420H548V752h-72v-332H152c-4.4 0-8-3.6-8-8v-56c0-4.4 3.6-8 8-8h324v-332h72V348h324c4.4 0 8 3.6 8 8v56c0 4.4-3.6 8-8 8zM872 586h-56c-4.4 0-8-3.6-8-8v-56c0-4.4 3.6-8 8-8h56c4.4 0 8 3.6 8 8v56c0 4.4-3.6 8-8 8zM872 88h-56c-4.4 0-8-3.6-8-8v-56c0-4.4 3.6-8 8-8h56c4.4 0 8 3.6 8 8v56c0 4.4-3.6 8-8 8zM872 752h-56c-4.4 0-8-3.6-8-8v-56c0-4.4 3.6-8 8-8h56c4.4 0 8 3.6 8 8v56c0 4.4-3.6 8-8 8zM872 254h-56c-4.4 0-8-3.6-8-8v-56c0-4.4 3.6-8 8-8h56c4.4 0 8 3.6 8 8v56c0 4.4-3.6 8-8 8zM650 680h56c4.4 0 8 3.6 8 8v56c0 4.4-3.6 8-8 8h-56c-4.4 0-8-3.6-8-8v-56c0-4.4 3.6-8 8-8zM706 88h-56c-4.4 0-8-3.6-8-8v-56c0-4.4 3.6-8 8-8h56c4.4 0 8 3.6 8 8v56c0 4.4-3.6 8-8 8zM374 88h-56c-4.4 0-8-3.6-8-8v-56c0-4.4 3.6-8 8-8h56c4.4 0 8 3.6 8 8v56c0 4.4-3.6 8-8 8zM318 680h56c4.4 0 8 3.6 8 8v56c0 4.4-3.6 8-8 8h-56c-4.4 0-8-3.6-8-8v-56c0-4.4 3.6-8 8-8zM152 680h56c4.4 0 8 3.6 8 8v56c0 4.4-3.6 8-8 8h-56c-4.4 0-8-3.6-8-8v-56c0-4.4 3.6-8 8-8zM208 88h-56c-4.4 0-8-3.6-8-8v-56c0-4.4 3.6-8 8-8h56c4.4 0 8 3.6 8 8v56c0 4.4-3.6 8-8 8zM152 514h56c4.4 0 8 3.6 8 8v56c0 4.4-3.6 8-8 8h-56c-4.4 0-8-3.6-8-8v-56c0-4.4 3.6-8 8-8zM208 254h-56c-4.4 0-8-3.6-8-8v-56c0-4.4 3.6-8 8-8h56c4.4 0 8 3.6 8 8v56c0 4.4-3.6 8-8 8z"  horiz-adv-x="1024" />
      
      <glyph glyph-name="font-colors" unicode="&#58940;" d="M904 80H120c-4.4 0-8-3.6-8-8v-80c0-4.4 3.6-8 8-8h784c4.4 0 8 3.6 8 8v80c0 4.4-3.6 8-8 8z m-650.3 80h85c4.2 0 8 2.7 9.3 6.8l53.7 166h219.2l53.2-166c1.3-4 5-6.8 9.3-6.8h89.1c1.1 0 2.2 0.2 3.2 0.5 5.1 1.8 7.8 7.3 6 12.4L573.6 777.4c-1.4 3.9-5.1 6.6-9.2 6.6H462.1c-4.2 0-7.9-2.6-9.2-6.6L244.5 172.9c-0.4-1-0.5-2.1-0.5-3.2-0.1-5.3 4.3-9.7 9.7-9.7z m255.9 516.1h4.1l83.8-263.8H424.9l84.7 263.8z"  horiz-adv-x="1024" />
      
      <glyph glyph-name="paint-bucket" unicode="&#60627;" d="M1005.989055 304.609628L471.822781 842.149076l-8.071524-8.011289A212.449757 212.449757 0 0 1 313.584757 895.999398h-0.060236c-57.103025 0-110.893111-22.287046-151.310969-62.704905a212.509993 212.509993 0 0 1-62.76514-151.43144c0-56.681378 22.046105-109.929347 61.861611-150.1665L28.310572 398.636867C10.059288 380.325348 0 356.110774 0 330.390319c0-25.840926 9.999053-49.995265 28.129866-68.065843l289.791829-292.683122a95.774061 95.774061 0 0 1 68.126078-28.250336 95.774061 95.774061 0 0 1 68.246548 28.370807L789.081889 304.549393l216.907166 0.060235zM159.683671 681.923288c0 41.080446 16.022579 79.691247 45.116209 108.784877A152.877087 152.877087 0 0 0 313.524521 835.764139h0.060236c40.598564 0 78.667248-15.781638 107.580172-44.21268L203.956586 574.282881a152.515675 152.515675 0 0 0-44.272915 107.640407z m251.903852-669.635371a36.141155 36.141155 0 0 0-51.019265-0.180705L141.552858 233.411552h491.158299l-221.123634-221.123635zM692.946416 293.646811H81.859717l-11.023053 11.203758a36.261626 36.261626 0 0 0 0.060235 51.19997L471.702311 756.85595l389.601653-392.071299-97.219708-0.060235L692.946416 293.646811z m252.024322-118.000872l-24.51575 36.382096-25.178338-36.020684c-19.215048-27.527513-82.100658-121.133105-82.100658-168.538254 0-58.127025 47.284678-105.411703 105.411703-105.411703S1023.999398-50.597693 1023.999398 7.529332c0 47.103972-60.4762 140.589094-79.02866 168.116607zM918.587695-37.647112a45.296915 45.296915 0 0 0-45.176444 45.176444c0 14.456462 21.022105 55.416438 46.140208 95.834297 24.094103-40.357623 44.21268-81.257364 44.21268-95.834297 0-24.877162-20.299282-45.176444-45.176444-45.176444z"  horiz-adv-x="1024" />
      
      <glyph glyph-name="wrap" unicode="&#60325;" d="M896 682.666667 128 682.666667 128 597.333333 896 597.333333 896 682.666667M128 85.333333 426.666667 85.333333 426.666667 170.666667 128 170.666667 128 85.333333M128 341.333333 768 341.333333C810.666667 341.333333 853.333333 322.986667 853.333333 256 853.333333 189.013333 810.666667 170.666667 768 170.666667L682.666667 170.666667 682.666667 256 512 128 682.666667 0 682.666667 85.333333 768 85.333333C893.866667 85.333333 938.666667 139.52 938.666667 256 938.666667 372.053333 896 426.666667 768 426.666667L128 426.666667 128 341.333333Z"  horiz-adv-x="1024" />
      
      <glyph glyph-name="zoom_reset" unicode="&#59539;" d="M438.070857 132.20571399999994a329.508571 329.508571 0 0 1 191.579429 61.732572l203.136-203.154286a48.603429 48.603429 0 0 1 34.706285-14.134857c27.867429 0 48 21.430857 48 48.859428 0 12.854857-4.278857 24.850286-13.714285 34.267429L699.922286 262.08914300000004c42.422857 55.716571 67.712 124.708571 67.712 199.716571 0 181.284571-148.278857 329.563429-329.563429 329.563429-181.723429 0-329.563429-148.278857-329.563428-329.563429S256.347429 132.20571399999994 438.070857 132.20571399999994z m0 71.149715c-141.860571 0-258.432 116.992-258.432 258.432 0 141.421714 116.571429 258.432 258.432 258.432 141.421714 0 258.432-117.010286 258.432-258.432 0-141.44-117.010286-258.432-258.432-258.432z"  horiz-adv-x="1024" />
      
      <glyph glyph-name="zoom_out" unicode="&#59568;" d="M438.070857 132.205714a329.508571 329.508571 0 0 1 191.579429 61.732572l203.136-203.154286a48.603429 48.603429 0 0 1 34.706285-14.134857c27.867429 0 48 21.430857 48 48.859428 0 12.854857-4.278857 24.850286-13.714285 34.267429L699.922286 262.089143c42.422857 55.716571 67.712 124.708571 67.712 199.716571 0 181.284571-148.278857 329.563429-329.563429 329.563429-181.723429 0-329.563429-148.278857-329.563428-329.563429S256.347429 132.205714 438.070857 132.205714z m0 71.149715c-141.860571 0-258.432 116.992-258.432 258.432 0 141.421714 116.571429 258.432 258.432 258.432 141.421714 0 258.432-117.010286 258.432-258.432 0-141.44-117.010286-258.432-258.432-258.432z m-121.709714 226.285714H559.36c17.554286 0 32.566857 14.994286 32.566857 32.146286 0 17.133714-14.994286 32.146286-32.566857 32.146285H316.342857c-17.554286 0-32.128-14.994286-32.128-32.146285 0-17.152 14.573714-32.146286 32.146286-32.146286z"  horiz-adv-x="1024" />
      
      <glyph glyph-name="zoom_in" unicode="&#59584;" d="M438.070857 132.205714a329.508571 329.508571 0 0 1 191.579429 61.732572l203.136-203.154286a48.603429 48.603429 0 0 1 34.706285-14.134857c27.867429 0 48 21.430857 48 48.859428 0 12.854857-4.278857 24.850286-13.714285 34.267429L699.922286 262.089143c42.422857 55.716571 67.712 124.708571 67.712 199.716571 0 181.284571-148.278857 329.563429-329.563429 329.563429-181.723429 0-329.563429-148.278857-329.563428-329.563429S256.347429 132.205714 438.070857 132.205714z m0 71.149715c-141.860571 0-258.432 116.992-258.432 258.432 0 141.421714 116.571429 258.432 258.432 258.432 141.421714 0 258.432-117.010286 258.432-258.432 0-141.44-117.010286-258.432-258.432-258.432z m34.706286 131.565714v94.72h86.582857c17.554286 0 32.566857 14.994286 32.566857 32.146286 0 17.133714-14.994286 32.146286-32.566857 32.146285h-86.582857v94.72c0 20.553143-16.713143 32.987429-34.706286 32.987429-17.993143 0-35.145143-12.434286-35.145143-33.005714v-94.72h-86.564571c-17.572571 0-32.146286-14.994286-32.146286-32.128 0-17.152 14.573714-32.146286 32.146286-32.146286h86.564571v-94.72c0-20.571429 17.152-32.987429 35.145143-32.987429s34.706286 12.434286 34.706286 32.987429z"  horiz-adv-x="1024" />
      
      <glyph glyph-name="align-mid" unicode="&#58884;" d="M640 640c0 25.6-17.066667 42.666667-42.666667 42.666667s-42.666667-17.066667-42.666666-42.666667v-512c0-25.6 17.066667-42.666667 42.666666-42.666667s42.666667 17.066667 42.666667 42.666667V640zM725.333333 768v-768c0-25.6 17.066667-42.666667 42.666667-42.666667s42.666667 17.066667 42.666667 42.666667V768c0 25.6-17.066667 42.666667-42.666667 42.666667s-42.666667-17.066667-42.666667-42.666667zM469.333333 0V768c0 25.6-17.066667 42.666667-42.666666 42.666667s-42.666667-17.066667-42.666667-42.666667v-768c0-25.6 17.066667-42.666667 42.666667-42.666667s42.666667 17.066667 42.666666 42.666667zM298.666667 128V640c0 25.6-17.066667 42.666667-42.666667 42.666667s-42.666667-17.066667-42.666667-42.666667v-512c0-25.6 17.066667-42.666667 42.666667-42.666667s42.666667 17.066667 42.666667 42.666667z"  horiz-adv-x="1024" />
      
      <glyph glyph-name="align-center" unicode="&#58885;" d="M256 512c-25.6 0-42.666667-17.066667-42.666667-42.666667s17.066667-42.666667 42.666667-42.666666h512c25.6 0 42.666667 17.066667 42.666667 42.666666s-17.066667 42.666667-42.666667 42.666667H256zM128 597.333333h768c25.6 0 42.666667 17.066667 42.666667 42.666667s-17.066667 42.666667-42.666667 42.666667H128c-25.6 0-42.666667-17.066667-42.666667-42.666667s17.066667-42.666667 42.666667-42.666667z m768-256H128c-25.6 0-42.666667-17.066667-42.666667-42.666666s17.066667-42.666667 42.666667-42.666667h768c25.6 0 42.666667 17.066667 42.666667 42.666667s-17.066667 42.666667-42.666667 42.666666z m-128-170.666666H256c-25.6 0-42.666667-17.066667-42.666667-42.666667s17.066667-42.666667 42.666667-42.666667h512c25.6 0 42.666667 17.066667 42.666667 42.666667s-17.066667 42.666667-42.666667 42.666667z"  horiz-adv-x="1024" />
      
      <glyph glyph-name="align-right" unicode="&#58886;" d="M896 512H298.666667c-25.6 0-42.666667-17.066667-42.666667-42.666667s17.066667-42.666667 42.666667-42.666666h597.333333c25.6 0 42.666667 17.066667 42.666667 42.666666s-17.066667 42.666667-42.666667 42.666667zM128 597.333333h768c25.6 0 42.666667 17.066667 42.666667 42.666667s-17.066667 42.666667-42.666667 42.666667H128c-25.6 0-42.666667-17.066667-42.666667-42.666667s17.066667-42.666667 42.666667-42.666667zM896 341.333333H128c-25.6 0-42.666667-17.066667-42.666667-42.666666s17.066667-42.666667 42.666667-42.666667h768c25.6 0 42.666667 17.066667 42.666667 42.666667s-17.066667 42.666667-42.666667 42.666666zM896 170.666667H298.666667c-25.6 0-42.666667-17.066667-42.666667-42.666667s17.066667-42.666667 42.666667-42.666667h597.333333c25.6 0 42.666667 17.066667 42.666667 42.666667s-17.066667 42.666667-42.666667 42.666667z"  horiz-adv-x="1024" />
      
      <glyph glyph-name="align-justify" unicode="&#58906;" d="M896 512H128c-25.6 0-42.666667-17.066667-42.666667-42.666667s17.066667-42.666667 42.666667-42.666666h768c25.6 0 42.666667 17.066667 42.666667 42.666666s-17.066667 42.666667-42.666667 42.666667zM128 597.333333h768c25.6 0 42.666667 17.066667 42.666667 42.666667s-17.066667 42.666667-42.666667 42.666667H128c-25.6 0-42.666667-17.066667-42.666667-42.666667s17.066667-42.666667 42.666667-42.666667zM896 341.333333H128c-25.6 0-42.666667-17.066667-42.666667-42.666666s17.066667-42.666667 42.666667-42.666667h768c25.6 0 42.666667 17.066667 42.666667 42.666667s-17.066667 42.666667-42.666667 42.666666zM896 170.666667H128c-25.6 0-42.666667-17.066667-42.666667-42.666667s17.066667-42.666667 42.666667-42.666667h768c25.6 0 42.666667 17.066667 42.666667 42.666667s-17.066667 42.666667-42.666667 42.666667z"  horiz-adv-x="1024" />
      
      <glyph glyph-name="align-top" unicode="&#58907;" d="M554.666667 768v-597.333333c0-25.6 17.066667-42.666667 42.666666-42.666667s42.666667 17.066667 42.666667 42.666667V768c0 25.6-17.066667 42.666667-42.666667 42.666667s-42.666667-17.066667-42.666666-42.666667zM725.333333 768v-768c0-25.6 17.066667-42.666667 42.666667-42.666667s42.666667 17.066667 42.666667 42.666667V768c0 25.6-17.066667 42.666667-42.666667 42.666667s-42.666667-17.066667-42.666667-42.666667zM469.333333 0V768c0 25.6-17.066667 42.666667-42.666666 42.666667s-42.666667-17.066667-42.666667-42.666667v-768c0-25.6 17.066667-42.666667 42.666667-42.666667s42.666667 17.066667 42.666666 42.666667zM298.666667 170.666667V768c0 25.6-17.066667 42.666667-42.666667 42.666667s-42.666667-17.066667-42.666667-42.666667v-597.333333c0-25.6 17.066667-42.666667 42.666667-42.666667s42.666667 17.066667 42.666667 42.666667z"  horiz-adv-x="1024" />
      
      <glyph glyph-name="align-left" unicode="&#58908;" d="M128 426.666667h597.333333c25.6 0 42.666667 17.066667 42.666667 42.666666s-17.066667 42.666667-42.666667 42.666667H128c-25.6 0-42.666667-17.066667-42.666667-42.666667s17.066667-42.666667 42.666667-42.666666zM128 597.333333h768c25.6 0 42.666667 17.066667 42.666667 42.666667s-17.066667 42.666667-42.666667 42.666667H128c-25.6 0-42.666667-17.066667-42.666667-42.666667s17.066667-42.666667 42.666667-42.666667zM896 341.333333H128c-25.6 0-42.666667-17.066667-42.666667-42.666666s17.066667-42.666667 42.666667-42.666667h768c25.6 0 42.666667 17.066667 42.666667 42.666667s-17.066667 42.666667-42.666667 42.666666zM725.333333 170.666667H128c-25.6 0-42.666667-17.066667-42.666667-42.666667s17.066667-42.666667 42.666667-42.666667h597.333333c25.6 0 42.666667 17.066667 42.666667 42.666667s-17.066667 42.666667-42.666667 42.666667z"  horiz-adv-x="1024" />
      
      <glyph glyph-name="align-stick" unicode="&#58909;" d="M640 0V768c0 25.6-17.066667 42.666667-42.666667 42.666667s-42.666667-17.066667-42.666666-42.666667v-768c0-25.6 17.066667-42.666667 42.666666-42.666667s42.666667 17.066667 42.666667 42.666667zM725.333333 768v-768c0-25.6 17.066667-42.666667 42.666667-42.666667s42.666667 17.066667 42.666667 42.666667V768c0 25.6-17.066667 42.666667-42.666667 42.666667s-42.666667-17.066667-42.666667-42.666667zM469.333333 0V768c0 25.6-17.066667 42.666667-42.666666 42.666667s-42.666667-17.066667-42.666667-42.666667v-768c0-25.6 17.066667-42.666667 42.666667-42.666667s42.666667 17.066667 42.666666 42.666667zM298.666667 0V768c0 25.6-17.066667 42.666667-42.666667 42.666667s-42.666667-17.066667-42.666667-42.666667v-768c0-25.6 17.066667-42.666667 42.666667-42.666667s42.666667 17.066667 42.666667 42.666667z"  horiz-adv-x="1024" />
      
      <glyph glyph-name="align-under" unicode="&#58910;" d="M640 0V597.333333c0 25.6-17.066667 42.666667-42.666667 42.666667s-42.666667-17.066667-42.666666-42.666667v-597.333333c0-25.6 17.066667-42.666667 42.666666-42.666667s42.666667 17.066667 42.666667 42.666667zM725.333333 768v-768c0-25.6 17.066667-42.666667 42.666667-42.666667s42.666667 17.066667 42.666667 42.666667V768c0 25.6-17.066667 42.666667-42.666667 42.666667s-42.666667-17.066667-42.666667-42.666667zM469.333333 0V768c0 25.6-17.066667 42.666667-42.666666 42.666667s-42.666667-17.066667-42.666667-42.666667v-768c0-25.6 17.066667-42.666667 42.666667-42.666667s42.666667 17.066667 42.666666 42.666667zM298.666667 0V597.333333c0 25.6-17.066667 42.666667-42.666667 42.666667s-42.666667-17.066667-42.666667-42.666667v-597.333333c0-25.6 17.066667-42.666667 42.666667-42.666667s42.666667 17.066667 42.666667 42.666667z"  horiz-adv-x="1024" />
      
      <glyph glyph-name="format_bold" unicode="&#59129;" d="M256 85.333333V682.666667h212.309333c91.136 0 171.349333-76.928 171.349334-170.666667 0-40.490667-14.933333-77.824-39.296-107.221333C650.069333 375.210667 682.666667 318.890667 682.666667 256c0-92.458667-70.4-170.666667-162.133334-170.666667H256zM341.333333 597.333333v-170.666666h126.976c43.306667 0 86.016 38.101333 86.016 85.333333s-42.709333 85.333333-86.016 85.333333H341.333333z m179.2-426.666666c42.496 0 76.8 38.101333 76.8 85.333333s-34.304 85.333333-76.8 85.333333H341.333333v-170.666666h179.2z"  horiz-adv-x="1024" />
      
      <glyph glyph-name="format_italic" unicode="&#59130;" d="M341.333333 682.666667v-85.333334h128v-426.666666H341.333333v-85.333334h341.333334v85.333334h-131.925334V597.333333H682.666667V682.666667z"  horiz-adv-x="1024" />
      
      <glyph glyph-name="format_strikethrough" unicode="&#59131;" d="M469.333333 85.333333h85.333334v128h-85.333334v-128zM213.333333 725.333333v-85.333333h256v-170.666667h85.333334V640h256V725.333333H213.333333zM128 298.666667h768v85.333333H128v-85.333333z"  horiz-adv-x="1024" />
      
      <glyph glyph-name="format_underlined" unicode="&#59133;" d="M512 170.666667c141.226667 0 256 114.773333 256 256V725.333333h-85.333333v-298.666666c0-82.346667-88.32-170.666667-170.666667-170.666667-82.346667 0-170.666667 88.32-170.666667 170.666667V725.333333H256v-298.666666c0-141.226667 114.773333-256 256-256z m-298.666667-85.333334v-85.333333h597.333334v85.333333H213.333333z"  horiz-adv-x="1024" />
      
      <glyph glyph-name="font_size_down" unicode="&#59545;" d="M639.93728 49.296l-272 704-0.112-0.032A47.888 47.888 0 0 1 323.16928 784a47.92 47.92 0 0 1-44.672-30.736l-0.096 0.032-272-704 0.112-0.048A47.216 47.216 0 0 1 3.16928 32a47.92 47.92 0 1 1 92.672-17.264l0.112-0.032L158.27328 176h329.808l62.32-161.296 0.096 0.032A47.92 47.92 0 0 1 643.16928 32c0 6.112-1.248 11.888-3.328 17.264l0.096 0.032zM195.36128 272L323.16928 602.816 450.97728 272H195.36128zM979.16928 432H691.16928a48 48 0 1 1 0-96h288a48 48 0 1 1 0 96z"  horiz-adv-x="1027" />
      
      <glyph glyph-name="font_size_up" unicode="&#59546;" d="M639.93728 49.296l-272 704-0.096-0.032A47.904 47.904 0 0 1 323.16928 784a47.92 47.92 0 0 1-44.672-30.736l-0.112 0.032-272-704 0.112-0.048C4.41728 43.888 3.16928 38.096 3.16928 32a47.92 47.92 0 1 1 92.672-17.264l0.112-0.032L158.25728 176h329.808l62.32-161.296 0.112 0.032A47.92 47.92 0 0 1 643.16928 32c0 6.112-1.248 11.888-3.328 17.264l0.096 0.032zM195.36128 272L323.16928 602.816 450.97728 272H195.36128zM979.16928 432h-96v96a48 48 0 1 1-96 0v-96h-96a48 48 0 1 1 0-96h96v-96a48 48 0 1 1 96 0v96h96a48 48 0 1 1 0 96z"  horiz-adv-x="1027" />
      
      <glyph glyph-name="ellipsis-h" unicode="&#58996;" d="M329.142857 475.428571v-109.714285A54.857143 54.857143 0 0 0 274.285714 310.857143h-109.714285A54.857143 54.857143 0 0 0 109.714286 365.714286v109.714285A54.857143 54.857143 0 0 0 164.571429 530.285714h109.714285A54.857143 54.857143 0 0 0 329.142857 475.428571z m292.571429 0v-109.714285a54.857143 54.857143 0 0 0-54.857143-54.857143h-109.714286A54.857143 54.857143 0 0 0 402.285714 365.714286v109.714285A54.857143 54.857143 0 0 0 457.142857 530.285714h109.714286a54.857143 54.857143 0 0 0 54.857143-54.857143z m292.571428 0v-109.714285a54.857143 54.857143 0 0 0-54.857143-54.857143h-109.714285a54.857143 54.857143 0 0 0-54.857143 54.857143v109.714285a54.857143 54.857143 0 0 0 54.857143 54.857143h109.714285a54.857143 54.857143 0 0 0 54.857143-54.857143z"  horiz-adv-x="1024" />
      
      <glyph glyph-name="ellipsis-v" unicode="&#58999;" d="M621.714286 182.857143v-109.714286A54.857143 54.857143 0 0 0 566.857143 18.285714h-109.714286A54.857143 54.857143 0 0 0 402.285714 73.142857v109.714286A54.857143 54.857143 0 0 0 457.142857 237.714286h109.714286A54.857143 54.857143 0 0 0 621.714286 182.857143z m0 292.571428v-109.714285A54.857143 54.857143 0 0 0 566.857143 310.857143h-109.714286A54.857143 54.857143 0 0 0 402.285714 365.714286v109.714285A54.857143 54.857143 0 0 0 457.142857 530.285714h109.714286A54.857143 54.857143 0 0 0 621.714286 475.428571z m0 292.571429v-109.714286A54.857143 54.857143 0 0 0 566.857143 603.428571h-109.714286A54.857143 54.857143 0 0 0 402.285714 658.285714v109.714286A54.857143 54.857143 0 0 0 457.142857 822.857143h109.714286A54.857143 54.857143 0 0 0 621.714286 768z"  horiz-adv-x="1024" />
      
      <glyph glyph-name="number-one" unicode="&#58887;" d="M667.001387-119.56903399999999V892.215127H550.702766L354.448497 711.956417 431.497372 627.643377l120.656013 110.479537v-857.691948h114.848002z"  horiz-adv-x="1024" />
      
      <glyph glyph-name="number-two" unicode="&#58888;" d="M843.421821-6.992615999999998H329.840909l378.656593 364.736052h1.451219c33.846898 33.913878 59.483245 71.679068 76.892294 113.345805 17.409049 41.666737 25.619601 84.282349 24.665145 127.874743a305.621193 305.621193 0 0 1-26.116364 116.990598c-16.454594 37.290753-40.142957 69.982258-71.087417 98.091258-29.013222 27.109892-62.385683 47.192534-100.106221 60.275834C576.475621 887.399392 536.807101 892.975423 495.235251 891.049767 451.709836 889.079458 410.361251 878.535791 371.189494 859.452258c-39.171757-19.111441-72.789809-44.820348-100.83183-77.143466-17.409049-19.407267-31.91566-41.1923-43.519833-65.355101-11.609754-24.185127-21.28827-47.147881-29.018803-68.910588C190.066168 626.280396 184.512464 607.420127 181.135588 591.462297c-3.399202-15.963412-5.576031-25.390755-6.530487-28.293194l113.161612-21.762707c0.954456 7.730533 3.376876 18.363505 7.256097 31.921242 3.851313 13.529829 8.707316 28.287612 14.506611 44.245442a503.070736 503.070736 0 0 0 20.311488 47.879072c7.730533 15.95783 16.437849 29.738831 26.116365 41.348586 37.720537 43.519833 86.074047 66.733759 145.077272 69.636197 53.181604 2.902439 98.655001-13.055392 136.375539-47.879072 19.334706-17.409049 34.092489-37.720537 44.251024-60.928882a179.208833 179.208833 0 0 0 15.23222-72.544218c1.925656-57.07757-20.311488-109.304718-66.739341-156.681445L176.056321 3.1603380000000243v-124.765785h667.3655v114.612831z"  horiz-adv-x="1024" />
      
      <glyph glyph-name="number-three" unicode="&#58898;" d="M529.611312 366.23894499999994c17.716395 0.920332 36.151098 3.501752 55.287274 7.699365 19.113729 4.197613 38.249904 10.499644 57.38608 18.894869 19.113729 8.400837 38.031045 19.596342 56.751948 33.592125 31.184671 23.311341 55.988746 50.848354 74.423449 82.58298 18.412256 31.706567 28.580804 65.781305 30.483198 102.173709 2.800279 35.449625-2.182983 69.98453-14.910504 103.576655-12.749968 33.592125-32.34631 63.901358-58.811472 90.978205-26.437104 26.11162-56.925914 46.64513-91.438371 61.583693C604.253621 882.236661 567.40105 891.1145 528.213979 893.914779c-39.192683 1.8575-76.763562-2.58142-112.673353-13.299922a311.902827 311.902827 0 0 1-98.67757-49.686716c-51.330967-38.272351-83.980313-86.780592-97.976097-145.564005l107.774268-25.1969c7.458058 33.592125 26.594234 61.589304 57.38608 83.980313a189.307844 189.307844 0 0 0 65.085444 32.194792c23.793954 6.515279 47.806768 9.096698 72.083336 7.699364 24.248509-1.402945 47.806768-6.997892 70.680391-16.796063 22.851175-9.798171 42.688823-23.098094 59.484886-39.894156 30.814293-32.671793 44.810077-68.581584 41.992962-107.774267-2.800279-41.987351-23.3394-77.459423-61.589304-106.371323-17.73323-13.081063-38.491211-22.637927-62.285165-28.69304-23.793954-6.083171-53.424162-9.096698-88.873787-9.096698v-110.574547c14.910504 0 31.246401 0.460166 48.985242 1.397334zM523.314893-120.145399a156.478921 156.478921 0 0 0 14.697257 0.701472c43.84485 3.743058 84.895034 14.478397 123.167385 32.194792 38.249904 17.73323 71.381863 41.527185 99.379042 71.381863 29.849067 29.871514 51.544215 63.205497 65.079832 100.074904 13.518782 36.85257 17.957701 75.343781 13.299923 115.473632-3.743058 41.050183-15.881342 79.081228-36.392404 114.070687-20.533509 34.995071-48.530688 65.54561-83.980314 91.679678-30.791846 22.391009-66.482778 39.647238-107.072795 51.785521-40.590017 12.115837-84.22162 18.199008-130.866749 18.199008H367.251244v-110.574547h113.374826c34.506846 0 66.701637-3.978753 96.573151-11.896977 29.854679-7.940671 55.506133-19.837648 76.982422-35.690931 22.396621-15.881342 40.107404-34.995071 53.188467-57.38608 13.053004-22.396621 20.511062-45.730409 22.391009-69.98453 4.657779-49.467856-11.195505-92.858152-47.587909-130.170888-19.596342-20.533509-42.93013-36.605652-69.978918-48.289382-27.076847-11.655671-54.832719-18.653562-83.284452-20.993675-28.47418-2.317666-57.16722 0.241307-86.07912 7.699364-28.934346 7.480505-55.068414 19.596342-78.379755 36.392404-23.333788 17.710783-41.532796 37.789738-54.585801 60.186359-13.081063 22.391009-20.078955 46.64513-20.993675 72.779197l-110.574547-5.594946c1.8575-41.992963 13.51317-81.662647 34.989459-118.975384 21.453841-37.307125 50.388188-69.501916 86.780592-96.573152 29.854679-21.453841 62.504025-38.008598 97.976097-49.692327 35.449625-11.655671 72.302196-17.491924 110.574547-17.491923 4.657779 0 9.556864 0.241307 14.697256 0.695861z"  horiz-adv-x="1024" />
      
      <glyph glyph-name="number-four" unicode="&#58899;" d="M725.772469-121.73533099999997v208.971224h137.407111v113.072859h-137.407111V890.199289H591.231491L156.114548 206.035443v-118.79955h456.585062v-208.971224h113.072859z m-439.410566 322.044083l326.337707 512.407746v-512.407746H286.361903z"  horiz-adv-x="1024" />
      
      <glyph glyph-name="number-five" unicode="&#58900;" d="M638.810715-91.94082600000002c42.440045 18.336913 79.091543 45.359438 109.976821 81.039666 28.942738 32.805491 50.148805 70.18265 63.668441 112.148223 13.50289 41.965574 18.816966 85.125699 15.919901 129.508285-3.868335 43.416897-15.439848 83.931148-34.731285 121.553916-19.308183 37.622768-45.353856 70.411512-78.137019 98.399725-38.59962 31.839802-81.536464 52.822589-128.793787 62.948361-47.274068 10.131354-101.788008 9.880163-163.513907-0.720079l-8.685613-1.451324-50.645604-26.045673 60.776958 290.861954h351.638911V890.621855H333.480184L229.291911 402.96045l86.822631-69.46257 134.576752 69.46257c53.04587 7.70876 93.811311 6.73749 122.279577-2.897065 28.440356-9.651301 51.371266-21.702867 68.731327-36.177026 43.416897-36.673826 67.514448-83.931148 72.354053-141.811041a238.681295 238.681295 0 0 0-9.405692-84.651228 186.640188 186.640188 0 0 0-41.239912-73.079715 215.309407 215.309407 0 0 0-63.668441-48.474201c-24.12546-12.051566-49.205445-19.040246-75.251118-20.982787-26.045673-1.925794-52.091346 0.72008-78.1426 7.959951-26.045673 7.234289-49.696662 19.531464-70.90273 36.897106-22.205248 17.365643-39.3197 37.85163-51.371266 61.502619-12.073894 23.628661-19.062575 48.948672-20.982787 75.971198l-114.319627-5.788548c1.920212-43.411315 13.022836-84.182339 33.285544-122.279577 20.257125-38.097239 47.748539-71.131592 82.479825-99.125388 28.942738-23.148608 60.776958-40.514251 95.508243-52.091345 34.731285-11.577095 69.931459-17.365643 105.634014-17.365643 46.30838 0 90.668638 9.176829 133.131011 27.491414z"  horiz-adv-x="1024" />
      
      <glyph glyph-name="number-six" unicode="&#58901;" d="M623.319103 838.994312L525.432888 892.902742 228.950444 351.00020400000005l97.880644-52.488176L623.319103 838.994312z m10.63799-934.845374c38.302333 17.020784 71.636557 40.429931 100.008242 70.216302 28.371686 29.791941 50.828426 64.791484 67.386931 104.976351 16.530656 40.184867 24.823833 82.987459 24.823833 128.385498 0 45.392469-8.293176 87.949998-24.823833 127.672586-16.558504 39.717018-39.015245 74.471498-67.386931 104.263439-28.371686 29.791941-61.70591 53.418303-100.008242 70.929214-38.302333 17.488632-79.216821 26.244088-122.710047 26.244088-43.509935 0-84.402145-8.755455-122.704478-26.244088-38.302333-17.510911-71.642127-41.137273-100.013812-70.929214-28.371686-29.791941-50.845135-64.54642-67.381361-104.263439C204.58889 295.67708700000003 196.323562 253.11955899999998 196.323562 207.72708899999998c0-45.398039 8.265328-88.200631 24.823833-128.385498 16.536226-40.184867 39.009675-75.18441 67.381361-104.976351 28.371686-29.786371 61.71148-53.195518 100.013812-70.216302 38.302333-17.026353 79.194542-25.536745 122.704478-25.536745 43.493226 0 84.407714 8.510392 122.710047 25.536745z m-43.264872 503.594637a203.831681 203.831681 0 0 0 64.540851-46.812725c18.446608-19.861294 32.849667-43.042086 43.270441-69.508959 10.392926-26.489151 15.600528-54.392988 15.600528-83.694802 0-30.282068-5.207602-58.40869-15.600528-84.407714-10.420774-26.021303-24.823833-48.940322-43.270441-68.801616a203.915225 203.915225 0 0 0-64.540851-46.812725c-24.606617-11.350902-51.07349-17.020784-79.445175-17.020783-28.371686 0-54.855267 5.669881-79.439607 17.020783a203.68687 203.68687 0 0 0-64.54642 46.812725c-18.441039 19.861294-32.871945 42.780314-43.264871 68.801616-10.415205 25.999024-15.606098 54.125646-15.606098 84.407714 0 29.301814 5.190893 57.205651 15.606098 83.694802 10.392926 26.466873 24.823833 49.647665 43.264871 69.508959A203.603326 203.603326 0 0 0 431.807439 407.743575c24.584339 11.350902 51.06792 17.026353 79.439607 17.026353 28.371686 0 54.838559-5.675451 79.445175-17.026353z"  horiz-adv-x="1024" />
      
      <glyph glyph-name="number-seven" unicode="&#58902;" d="M503.789896-70.710421c10.317419 31.451306 23.808566 72.463046 40.529513 123.052042a21409.182523 21409.182523 0 0 1 55.994427 172.418649 29147.622388 29147.622388 0 0 0 64.842735 199.681307 24758.945647 24758.945647 0 0 1 66.317453 204.840016 24173.656416 24173.656416 0 0 0 60.41858 187.154615L816.945989 893.065472H203.900658v-116.418615h453.88793a16633.053058 16633.053058 0 0 1-60.418581-184.945341 48707.357107 48707.357107 0 0 0-61.158743-189.363888 53495.581503 53495.581503 0 0 1-57.474752-177.577358 49235.05944 49235.05944 0 0 0-48.626444-150.3147c-14.253739-43.703241-26.045875-79.068437-35.370804-106.101196-9.347357-27.01033-14.506067-42.486458-15.470521-46.422778v1.474718l107.575914-45.682615c0.964454 2.943829 6.633427 20.147003 16.945239 51.57588z"  horiz-adv-x="1024" />
      
      <glyph glyph-name="number-eight" unicode="&#58903;" d="M611.302679 412.382342c31.423903 13.157185 58.835171 31.026557 82.278577 53.591325 23.449003 22.564768 41.956366 48.873542 55.555669 78.971093 13.593706 30.080762 20.40455 62.053113 20.40455 95.900266 0 34.770562-6.810844 67.207417-20.40455 97.310564-13.599302 30.075165-32.106666 56.406325-55.555669 78.971094-23.443407 22.564768-50.854675 40.417351-82.278577 53.591325C579.878776 883.875194 546.367409 890.462181 510.757383 890.462181c-35.632411 0-69.149375-6.586987-100.573277-19.744172-31.418306-13.173974-58.829575-31.026557-82.278578-53.591325-23.443407-22.564768-41.956366-48.895928-55.550072-78.971094-13.593706-30.103147-20.382164-62.540002-20.382165-97.310564 0-33.847153 6.788458-65.819504 20.382165-95.900266 13.593706-30.097551 32.106666-56.406325 55.550072-78.971093 23.449003-22.564768 50.860272-40.43414 82.278578-53.591325 31.423903-13.179571 64.940866-19.744172 100.573277-19.744172 35.610025 0 69.121393 6.564602 100.545296 19.744172z m-43.01409 356.094656c17.785425-7.05149 33.231546-16.923576 46.321574-29.616259 13.090028-12.692682 23.622492-27.500812 31.575006-44.424388a124.447608 124.447608 0 0 0 11.942762-53.591325c0-18.815167-3.984652-36.443892-11.942762-52.886176a153.381104 153.381104 0 0 0-31.575006-43.719239c-13.090028-12.687086-28.536149-22.559172-46.321574-29.610662-17.779829-7.05149-36.953166-10.577235-57.531206-10.577235-20.583636 0-39.773762 3.525745-57.559187 10.577235-17.779829 7.05149-33.449807 16.923576-47.021127 29.610662-13.576917 12.692682-24.086995 27.260165-31.575006 43.719239-7.493607 16.442284-11.220824 34.07101-11.220824 52.886176 0 18.798377 3.727216 36.667749 11.220824 53.591325a134.940897 134.940897 0 0 0 31.575006 44.424388c13.57132 12.692682 29.241298 22.564768 47.021127 29.616259 17.785425 7.05149 36.975552 10.577235 57.559187 10.577235 20.578039 0 39.751377-3.525745 57.531206-10.577235z m70.363798-865.906201c40.036794 16.459073 74.896899 38.783196 104.574718 66.989156 29.683416 28.205961 53.238751 61.347964 70.671601 99.420415 17.427254 38.078047 26.152074 78.736044 26.152074 121.99078 0 43.23235-8.72482 83.912733-26.152074 121.985183-17.432851 38.078047-40.988186 71.220051-70.671601 99.426011-29.677819 28.205961-64.537924 50.530083-104.574718 66.989156-40.04239 16.436688-82.68152 24.680216-127.895004 24.680216-45.241465 0-87.880595-8.243528-127.917389-24.680216-40.036794-16.459073-74.896899-38.783196-104.580315-66.989156-29.677819-28.205961-53.238751-61.347964-70.666004-99.426011-17.432851-38.07245-26.135285-78.752833-26.135285-121.985183 0-43.254736 8.702434-83.912733 26.135285-121.99078 17.427254-38.07245 40.988186-71.214454 70.666004-99.420415 29.683416-28.205961 64.543521-50.530083 104.580315-66.989156 40.036794-16.436688 82.675924-24.680216 127.917389-24.680216 45.213483 0 87.852613 8.243528 127.895004 24.680216zM595.084251 377.12489100000005c26.247213-10.353378 49.209328-24.680216 68.886343-43.01409a212.585639 212.585639 0 0 0 47.088284-64.162964c11.724501-24.461955 17.583954-50.770729 17.583954-78.976689 0-28.205961-5.859453-54.53712-17.583954-78.97669a212.244257 212.244257 0 0 0-47.088284-64.162964c-19.677015-18.333874-42.63913-32.660712-68.886343-43.01409-26.241617-10.336589-54.358035-15.513278-84.326868-15.513278-29.991219 0-58.107637 5.176689-84.35485 15.513278-26.241617 10.353378-49.203731 24.680216-68.880746 43.01409a212.244257 212.244257 0 0 0-47.088285 64.162964c-11.724501 24.439569-17.561568 50.770729-17.561568 78.97669 0 28.205961 5.837067 54.514735 17.561568 78.976689a212.585639 212.585639 0 0 0 47.088285 64.162964c19.677015 18.333874 42.63913 32.660712 68.880746 43.01409 26.247213 10.336589 54.363631 15.513278 84.35485 15.513279 29.968833 0 58.085251-5.176689 84.326868-15.513279z"  horiz-adv-x="1024" />
      
      <glyph glyph-name="number-nine" unicode="&#58904;" d="M792.404047 466.213351l-96.253721 48.124076-295.627282-585.75276 96.253721-48.124077L792.404047 466.213351z m-166.379444-180.083836c36.652704 16.544391 68.516389 39.036077 95.563212 67.525174 27.030117 28.489097 48.575135 62.006664 64.623919 100.591682 16.032078 38.585018 24.062038 79.469879 24.062038 122.654583 0 43.184704-8.02996 83.830114-24.062038 121.947368-16.048784 38.111685-37.593802 71.412076-64.623919 99.901172-27.046822 28.489097-58.910507 50.980782-95.563212 67.525174C589.349624 882.819059 550.397077 891.088471 509.150255 891.088471c-41.25239 0-80.221644-8.269411-116.874348-24.813803-36.674979-16.544391-68.750272-39.036077-96.253722-67.525174-27.497881-28.489097-49.048469-61.789488-64.623919-99.901172C215.800541 660.731068 208.021169 620.085658 208.021169 576.900954c0-43.184704 7.779372-84.069565 23.377097-122.654583 15.57545-38.585018 37.126038-72.102585 64.623919-100.591682 27.50345-28.489097 59.578743-50.980782 96.253722-67.525174 36.652704-16.544391 75.621958-24.791528 116.874348-24.791529 41.246822 0 80.199369 8.247137 116.874348 24.791529z m-41.530822 479.831902c23.293568-10.998039 43.613488-25.671372 60.976468-43.997724 17.357411-18.348627 31.045097-40.110822 41.096469-65.314428 10.056941-25.220313 15.085411-52.033253 15.085412-80.438821 0-28.422273-5.02847-55.235213-15.085412-80.433251-10.051372-25.225881-23.739058-46.988077-41.096469-65.314429-17.36298-18.348627-37.6829-32.999685-60.976468-44.003292-23.287999-10.998039-48.185331-16.499842-74.658585-16.499843-26.512234 0-51.626743 5.501804-75.365801 16.499843-23.761332 11.003607-44.303998 25.654666-61.661409 44.003292-17.357411 18.326352-31.045097 40.088547-41.102038 65.314429-10.051372 25.198038-15.057568 52.010978-15.057568 80.433251 0 28.405567 5.006196 55.218508 15.057568 80.438821 10.056941 25.203607 23.744626 46.965802 41.102038 65.314428 17.357411 18.326352 37.900077 32.999685 61.661409 43.997724 23.739058 11.003607 48.853567 16.505411 75.365801 16.505411 26.473254 0 51.370586-5.501804 74.658585-16.505411z"  horiz-adv-x="1024" />
      
      <glyph glyph-name="number-one1" unicode="&#58905;" d="M641.276653-82.20839799999999c40.081852 24.484289 74.268823 58.832232 102.566467 103.054931 28.280991 44.22825 50.206391 97.409834 65.7762 159.52255 15.57536 62.112716 23.36304 130.803051 23.36304 206.109862 0 78.104381-7.543448 148.226806-22.630343 210.339521-15.092446 62.112716-36.551585 115.055618-64.388517 158.817607-27.836932 43.761988-61.785222 77.399438-101.861523 100.93455C603.997922 880.083533 558.981468 891.862191 508.997107 891.862191c-50.95574 0-97.626313-13.893488-140.067227-41.641608-42.440914-27.770323-78.282004-67.541334-107.528823-119.290828C236.872363 685.75788 218.255201 634.230414 205.527367 576.347358 192.777331 518.4698530000001 186.42174 455.163729 186.42174 386.478945c0-78.132134 7.548998-148.232357 22.635894-210.345073 15.086896-62.112716 36.523831-115.055618 64.360763-158.817606 27.836932-43.761988 61.563193-77.399438 101.178783-100.934551 39.61559-23.51291 84.415566-35.291568 134.399927-35.291568 48.08601 0 92.181043 12.239369 132.279546 36.701455zM608.188727 745.755766c26.737887-23.074402 48.530069-53.425817 65.426504-91.054244 16.874232-37.656181 29.069195-79.76405 36.568236-126.351362a891.21478 891.21478 0 0 0 11.273542-141.871215c0-47.997199-4.23521-95.289454-12.661225-141.876766-8.448217-46.587312-21.353674-88.717385-38.688617-126.345812-17.362697-37.656181-39.393561-68.007595-66.131448-91.054244-26.732336-23.052199-58.404825-34.586625-94.978612-34.586624-38.466588 0-71.049398 11.534426-97.781734 34.586624-26.732336 23.046648-48.552272 53.398063-65.426504 91.054244-16.890884 37.628427-29.091398 79.7585-36.590439 126.345812a891.331346 891.331346 0 0 0-11.251339 141.876766c0 48.924171 4.213007 96.92137 12.661225 143.991595 8.426015 47.048023 21.331471 89.155893 38.688617 126.345812 17.340494 37.167716 39.154879 67.052869 65.426504 89.644357 26.249422 22.585937 57.677679 33.881681 94.27367 33.881682 39.393561 0 72.459284-11.539976 99.19162-34.586625z"  horiz-adv-x="1024" />
      
      <glyph glyph-name="angle-double-right" unicode="&#58895;" d="M572.196571 347.428571a19.748571 19.748571 0 0 0-5.705142-13.129142L300.214857 68.022857c-3.437714-3.437714-8.557714-5.705143-13.129143-5.705143s-9.728 2.304-13.129143 5.705143l-28.562285 28.562286c-3.437714 3.437714-5.705143 8.557714-5.705143 13.129143s2.304 9.728 5.705143 13.129143L469.979429 347.428571 245.394286 572.013714C241.956571 575.451429 239.689143 580.571429 239.689143 585.142857s2.304 9.728 5.705143 13.129143l28.562285 28.562286c3.437714 3.437714 8.557714 5.705143 13.129143 5.705143s9.728-2.304 13.129143-5.705143l266.276572-266.276572a19.602286 19.602286 0 0 0 5.705142-13.129143z m219.428572 0a19.748571 19.748571 0 0 0-5.705143-13.129142L519.643429 68.022857c-3.437714-3.437714-8.557714-5.705143-13.129143-5.705143s-9.728 2.304-13.129143 5.705143l-28.562286 28.562286c-3.437714 3.437714-5.705143 8.557714-5.705143 13.129143s2.304 9.728 5.705143 13.129143L689.408 347.428571 464.822857 572.013714c-3.437714 3.437714-5.705143 8.557714-5.705143 13.129143s2.304 9.728 5.705143 13.129143l28.562286 28.562286c3.437714 3.437714 8.557714 5.705143 13.129143 5.705143s9.728-2.304 13.129143-5.705143l266.276571-266.276572a19.602286 19.602286 0 0 0 5.705143-13.129143z"  horiz-adv-x="1024" />
      
      <glyph glyph-name="angle-double-up" unicode="&#58896;" d="M797.147429 146.285714a19.748571 19.748571 0 0 0-5.705143-13.129143l-28.562286-28.562285a18.578286 18.578286 0 0 0-13.129143-5.705143 19.748571 19.748571 0 0 0-13.129143 5.705143l-224.585143 224.585143L287.451429 104.594286c-3.437714-3.437714-8.557714-5.705143-13.129143-5.705143s-9.728 2.304-13.129143 5.705143l-28.562286 28.562285c-3.437714 3.437714-5.705143 8.557714-5.705143 13.129143s2.304 9.728 5.705143 13.129143l266.276572 266.276572c3.437714 3.437714 8.557714 5.705143 13.129142 5.705142s9.728-2.304 13.129143-5.705142l266.276572-266.276572a19.602286 19.602286 0 0 0 5.705143-13.129143z m0 219.428572a19.748571 19.748571 0 0 0-5.705143-13.129143l-28.562286-28.562286a18.578286 18.578286 0 0 0-13.129143-5.705143 19.748571 19.748571 0 0 0-13.129143 5.705143L512.036571 548.608 287.451429 324.022857c-3.437714-3.437714-8.557714-5.705143-13.129143-5.705143s-9.728 2.304-13.129143 5.705143l-28.562286 28.562286c-3.437714 3.437714-5.705143 8.557714-5.705143 13.129143s2.304 9.728 5.705143 13.129143L498.907429 645.12c3.437714 3.437714 8.557714 5.705143 13.129142 5.705143s9.728-2.304 13.129143-5.705143l266.276572-266.276571a19.602286 19.602286 0 0 0 5.705143-13.129143z"  horiz-adv-x="1024" />
      
      <glyph glyph-name="A" unicode="&#58897;" d="M811.707317-128h-599.414634C94.907317-128 0-33.092682999999965 0 84.29268300000001v599.414634C0 801.092683 94.907317 896 212.292683 896h599.414634C929.092683 896 1024 801.092683 1024 683.707317v-599.414634c0-117.385366-94.907317-212.292683-212.292683-212.292683zM212.292683 871.02439C109.892683 871.02439 24.97561 786.107317 24.97561 683.707317v-599.414634C24.97561-18.107316999999966 109.892683-103.02439000000004 212.292683-103.02439000000004h599.414634c102.4 0 187.317073 84.917073 187.317073 187.317073v599.414634C999.02439 786.107317 914.107317 871.02439 811.707317 871.02439h-599.414634zM979.043902-38.087805H749.268293l-74.92683 194.809756H329.678049l-69.931708-194.809756H39.960976L409.6 821.073171h182.321951l387.121951-859.160976zM616.897561 301.58048799999995L499.512195 621.2682930000001l-114.887805-319.687805h232.273171z"  horiz-adv-x="1024" />
      
      <glyph glyph-name="B" unicode="&#58911;" d="M811.707317-128h-599.414634C94.907317-128 0-33.092682999999965 0 84.29268300000001v599.414634C0 801.092683 94.907317 896 212.292683 896h599.414634C929.092683 896 1024 801.092683 1024 683.707317v-599.414634c0-117.385366-94.907317-212.292683-212.292683-212.292683zM212.292683 871.02439C109.892683 871.02439 24.97561 786.107317 24.97561 683.707317v-599.414634C24.97561-18.107316999999966 109.892683-103.02439000000004 212.292683-103.02439000000004h599.414634c102.4 0 187.317073 84.917073 187.317073 187.317073v599.414634C999.02439 786.107317 914.107317 871.02439 811.707317 871.02439h-599.414634zM187.317073 806.087805h342.165854c69.931707 0 119.882927-4.995122 152.351219-9.990244 32.468293-4.995122 62.439024-17.482927 89.912195-34.965854s47.453659-42.458537 64.936586-72.429268 27.473171-62.439024 27.473171-99.902439c0-39.960976-9.990244-77.42439-32.468293-109.892683s-49.95122-59.941463-87.414634-74.926829c52.44878-14.985366 92.409756-39.960976 119.882927-77.42439s42.458537-79.921951 42.458536-129.873171c0-39.960976-9.990244-77.42439-27.473171-114.887805s-42.458537-67.434146-74.926829-87.414634c-32.468293-22.478049-69.931707-34.965854-117.385366-39.960976-29.970732-2.497561-97.404878-4.995122-209.795122-4.995122H72.429268l114.887805 67.434147V806.087805z m174.829268-144.858537v-197.307317H474.536585c67.434146 0 109.892683 0 124.878049 2.497561 29.970732 2.497561 52.44878 14.985366 69.931707 29.970732s24.97561 39.960976 24.97561 67.434146-7.492683 47.453659-22.478049 64.936586-37.463415 27.473171-64.936585 29.970731c-17.482927 2.497561-67.434146 2.497561-147.356097 2.497561h-97.404879z m0-339.668292v-229.77561h159.843903c62.439024 0 102.4 2.497561 119.882927 4.995122 24.97561 4.995122 47.453659 14.985366 62.439024 34.965853s24.97561 42.458537 24.97561 72.429269c0 24.97561-4.995122 47.453659-19.980488 64.936585s-29.970732 29.970732-54.946341 39.960976-74.926829 12.487805-154.848781 12.487805h-137.365854z"  horiz-adv-x="1024" />
      
      <glyph glyph-name="F" unicode="&#58912;" d="M811.707317-128h-599.414634C94.907317-128 0-33.092683 0 84.292683v599.414634C0 801.092683 94.907317 896 212.292683 896h599.414634C929.092683 896 1024 801.092683 1024 683.707317v-599.414634c0-117.385366-94.907317-212.292683-212.292683-212.292683zM212.292683 871.02439C109.892683 871.02439 24.97561 786.107317 24.97561 683.707317v-599.414634C24.97561-18.107317 109.892683-103.02439 212.292683-103.02439h599.414634c102.4 0 187.317073 84.917073 187.317073 187.317073v599.414634C999.02439 786.107317 914.107317 871.02439 811.707317 871.02439h-599.414634zM179.82439-110.517073l82.419512 137.365853V806.087805h589.424391v-147.356098H437.073171v-202.302439h357.151219v-144.858536H437.073171V-53.073171H349.658537z"  horiz-adv-x="1024" />
      
      <glyph glyph-name="C" unicode="&#58913;" d="M811.707317-128h-599.414634C94.907317-128 0-33.092682999999965 0 84.29268300000001v599.414634C0 801.092683 94.907317 896 212.292683 896h599.414634C929.092683 896 1024 801.092683 1024 683.707317v-599.414634c0-117.385366-94.907317-212.292683-212.292683-212.292683zM212.292683 871.02439C109.892683 871.02439 24.97561 786.107317 24.97561 683.707317v-599.414634C24.97561-18.107316999999966 109.892683-103.02439000000004 212.292683-103.02439000000004h599.414634c102.4 0 187.317073 84.917073 187.317073 187.317073v599.414634C999.02439 786.107317 914.107317 871.02439 811.707317 871.02439h-599.414634zM736.780488 261.619512l272.234146-34.965853c-7.492683-29.970732-122.380488-74.926829-134.868293-99.902439-24.97561-52.44878-57.443902-94.907317-97.404878-127.37561-59.941463-44.956098-134.868293-67.434146-227.278048-67.434147-114.887805 0-207.297561 39.960976-279.72683 117.385366s-109.892683 184.819512-109.892683 319.687805c0 142.360976 37.463415 254.75122 109.892683 332.17561s169.834146 117.385366 289.717074 117.385366c104.897561 0 189.814634-29.970732 254.751219-92.409756 39.960976-37.463415 67.434146-89.912195 87.414634-157.346342l-172.331707-39.960975c-9.990244 44.956098-32.468293 79.921951-62.439025 104.897561S594.419512 671.219512 549.463415 671.219512c-62.439024 0-114.887805-22.478049-154.848781-67.434146s-59.941463-119.882927-59.941463-222.282927c0-107.395122 19.980488-184.819512 57.443902-232.273171s89.912195-69.931707 152.35122-69.931707c44.956098 0 84.917073 14.985366 119.882927 44.956098 32.468293 29.970732 57.443902 74.926829 72.429268 137.365853z"  horiz-adv-x="1024" />
      
      <glyph glyph-name="D" unicode="&#58914;" d="M811.707317-128h-599.414634C94.907317-128 0-33.092683 0 84.292683v599.414634C0 801.092683 94.907317 896 212.292683 896h599.414634C929.092683 896 1024 801.092683 1024 683.707317v-599.414634c0-117.385366-94.907317-212.292683-212.292683-212.292683zM212.292683 871.02439C109.892683 871.02439 24.97561 786.107317 24.97561 683.707317v-599.414634C24.97561-18.107317 109.892683-103.02439 212.292683-103.02439h599.414634c102.4 0 187.317073 84.917073 187.317073 187.317073v599.414634C999.02439 786.107317 914.107317 871.02439 811.707317 871.02439h-599.414634zM187.317073 831.063415h317.190244c72.429268 0 124.878049-4.995122 162.341463-17.482927 49.95122-14.985366 92.409756-39.960976 129.873171-79.921951s62.439024-84.917073 82.419512-139.863415 27.473171-122.380488 27.473171-202.302439c0-69.931707-9.990244-132.370732-27.473171-182.321951-22.478049-62.439024-52.44878-112.390244-92.409756-152.35122-29.970732-29.970732-69.931707-52.44878-122.380487-67.434146-37.463415-12.487805-89.912195-17.482927-152.35122-17.482927H257.24878c-14.985366 0-72.429268-9.990244-169.834146-29.970732l99.902439 149.853659V831.063415z m172.331707-147.356098v-569.443902h129.873171c47.453659 0 82.419512 2.497561 104.897561 7.492683 27.473171 7.492683 52.44878 19.980488 69.931708 34.965853s32.468293 44.956098 44.956097 82.419512 17.482927 89.912195 17.482927 157.346342-4.995122 117.385366-17.482927 152.351219-27.473171 62.439024-49.951219 82.419513-47.453659 32.468293-79.921952 39.960975c-24.97561 4.995122-72.429268 7.492683-142.360975 7.492683h-77.424391z"  horiz-adv-x="1024" />
      
      <glyph glyph-name="E" unicode="&#58915;" d="M811.707317-128h-599.414634C94.907317-128 0-33.092683 0 84.292683v599.414634C0 801.092683 94.907317 896 212.292683 896h599.414634C929.092683 896 1024 801.092683 1024 683.707317v-599.414634c0-117.385366-94.907317-212.292683-212.292683-212.292683zM212.292683 871.02439C109.892683 871.02439 24.97561 786.107317 24.97561 683.707317v-599.414634C24.97561-18.107317 109.892683-103.02439 212.292683-103.02439h599.414634c102.4 0 187.317073 84.917073 187.317073 187.317073v599.414634C999.02439 786.107317 914.107317 871.02439 811.707317 871.02439h-599.414634zM187.317073-28.097561V831.063415H824.195122v-147.356098H359.64878v-189.814634h432.078049v-144.858537H359.64878v-232.27317h479.531708v-77.424391L874.146341-28.097561h-99.902439z"  horiz-adv-x="1024" />
      
      <glyph glyph-name="G" unicode="&#58916;" d="M811.707317-128h-599.414634C94.907317-128 0-33.092683 0 84.292683v599.414634C0 801.092683 94.907317 896 212.292683 896h599.414634C929.092683 896 1024 801.092683 1024 683.707317v-599.414634c0-117.385366-94.907317-212.292683-212.292683-212.292683zM212.292683 871.02439C109.892683 871.02439 24.97561 786.107317 24.97561 683.707317v-599.414634C24.97561-18.107317 109.892683-103.02439 212.292683-103.02439h599.414634c102.4 0 187.317073 84.917073 187.317073 187.317073v599.414634C999.02439 786.107317 914.107317 871.02439 811.707317 871.02439h-599.414634zM512 261.619512v144.858537h374.634146v-342.165854c-37.463415-34.965854-89.912195-64.936585-157.346341-92.409756s-139.863415-39.960976-209.795122-39.960976c-89.912195 0-167.336585 19.980488-234.770732 57.443903s-117.385366 92.409756-149.853658 162.341463-49.95122 147.356098-49.95122 229.77561c0 89.912195 17.482927 169.834146 54.946342 237.268293s92.409756 122.380488 164.839024 159.843902C359.64878 806.087805 427.082927 821.073171 509.502439 821.073171c107.395122 0 189.814634-22.478049 249.756098-67.434147 29.970732-22.478049 52.44878-47.453659 72.429268-77.42439 19.980488-32.468293 169.834146 0 177.326829-42.458536l-307.2-99.902439c-12.487805 42.458537-34.965854 74.926829-67.434146 99.902439s-74.926829 37.463415-124.878049 37.463414c-74.926829 0-134.868293-24.97561-179.82439-72.429268s-67.434146-119.882927-67.434147-214.790244c0-102.4 22.478049-177.326829 67.434147-229.77561s104.897561-77.42439 177.326829-77.42439c37.463415 0 72.429268 7.492683 109.892683 22.478049 37.463415 14.985366 67.434146 32.468293 94.907317 52.44878v109.892683h-199.804878z"  horiz-adv-x="1024" />
      
      <glyph glyph-name="H" unicode="&#58917;" d="M811.707317-128h-599.414634C94.907317-128 0-33.092683 0 84.292683v599.414634C0 801.092683 94.907317 896 212.292683 896h599.414634C929.092683 896 1024 801.092683 1024 683.707317v-599.414634c0-117.385366-94.907317-212.292683-212.292683-212.292683zM212.292683 871.02439C109.892683 871.02439 24.97561 786.107317 24.97561 683.707317v-599.414634C24.97561-18.107317 109.892683-103.02439 212.292683-103.02439h599.414634c102.4 0 187.317073 84.917073 187.317073 187.317073v599.414634C999.02439 786.107317 914.107317 871.02439 811.707317 871.02439h-599.414634zM152.35122-53.073171l34.965853 54.946342V806.087805h174.829268v-339.668293H699.317073V806.087805h174.829268V-53.073171h-174.829268V321.560976H362.146341v-374.634147H224.780488z"  horiz-adv-x="1024" />
      
      <glyph glyph-name="J" unicode="&#58918;" d="M811.707317-128h-599.414634C94.907317-128 0-33.092682999999965 0 84.29268300000001v599.414634C0 801.092683 94.907317 896 212.292683 896h599.414634C929.092683 896 1024 801.092683 1024 683.707317v-599.414634c0-117.385366-94.907317-212.292683-212.292683-212.292683zM212.292683 871.02439C109.892683 871.02439 24.97561 786.107317 24.97561 683.707317v-599.414634C24.97561-18.107316999999966 109.892683-103.02439000000004 212.292683-103.02439000000004h599.414634c102.4 0 187.317073 84.917073 187.317073 187.317073v599.414634C999.02439 786.107317 914.107317 871.02439 811.707317 871.02439h-599.414634zM529.482927 806.087805H839.180488c-44.956098-29.970732-67.434146-54.946341-67.434147-69.931707v-474.536586c0-69.931707-4.995122-124.878049-19.980487-164.839024-17.482927-49.95122-47.453659-89.912195-92.409756-119.882927s-102.4-44.956098-174.829269-44.956098c-84.917073 0-149.853659 22.478049-194.809756 69.931708s-69.931707 117.385366-69.931707 209.795122l162.341463 19.980487c2.497561-49.95122 9.990244-84.917073 22.478049-104.89756 19.980488-29.970732 47.453659-47.453659 84.917073-47.453659s64.936585 9.990244 82.419512 32.468293 24.97561 67.434146 24.97561 137.365853V703.687805c0 14.985366-22.478049 49.95122-67.434146 102.4z"  horiz-adv-x="1024" />
      
      <glyph glyph-name="K" unicode="&#58919;" d="M811.707317-128h-599.414634C94.907317-128 0-33.092682999999965 0 84.29268300000001v599.414634C0 801.092683 94.907317 896 212.292683 896h599.414634C929.092683 896 1024 801.092683 1024 683.707317v-599.414634c0-117.385366-94.907317-212.292683-212.292683-212.292683zM212.292683 871.02439C109.892683 871.02439 24.97561 786.107317 24.97561 683.707317v-599.414634C24.97561-18.107316999999966 109.892683-103.02439000000004 212.292683-103.02439000000004h599.414634c102.4 0 187.317073 84.917073 187.317073 187.317073v599.414634C999.02439 786.107317 914.107317 871.02439 811.707317 871.02439h-599.414634zM32.468293-53.073171l132.370731 79.921951V806.087805h172.331708v-382.126829l349.658536 382.126829h234.770732L596.917073 471.414634l342.165854-524.487805h-224.780488l-237.268293 402.107317-139.863414-142.360975V-53.073171H227.278049z"  horiz-adv-x="1024" />
      
      <glyph glyph-name="M" unicode="&#58920;" d="M811.707317-128h-599.414634C94.907317-128 0-33.092683 0 84.292683v599.414634C0 801.092683 94.907317 896 212.292683 896h599.414634C929.092683 896 1024 801.092683 1024 683.707317v-599.414634c0-117.385366-94.907317-212.292683-212.292683-212.292683zM212.292683 871.02439C109.892683 871.02439 24.97561 786.107317 24.97561 683.707317v-599.414634C24.97561-18.107317 109.892683-103.02439 212.292683-103.02439h599.414634c102.4 0 187.317073 84.917073 187.317073 187.317073v599.414634C999.02439 786.107317 914.107317 871.02439 811.707317 871.02439h-599.414634zM84.917073-53.073171L239.765854 806.087805h162.341463L499.512195 219.160976l97.404878 586.926829h162.341464L914.107317-53.073171h-162.341463l-72.429269 674.341464-97.404878-674.341464h-167.336585l-94.907317 674.341464-74.926829-674.341464z"  horiz-adv-x="1024" />
      
      <glyph glyph-name="O" unicode="&#58921;" d="M811.707317-128h-599.414634C94.907317-128 0-33.092682999999965 0 84.29268300000001v599.414634C0 801.092683 94.907317 896 212.292683 896h599.414634C929.092683 896 1024 801.092683 1024 683.707317v-599.414634c0-117.385366-94.907317-212.292683-212.292683-212.292683zM212.292683 871.02439C109.892683 871.02439 24.97561 786.107317 24.97561 683.707317v-599.414634C24.97561-18.107316999999966 109.892683-103.02439000000004 212.292683-103.02439000000004h599.414634c102.4 0 187.317073 84.917073 187.317073 187.317073v599.414634C999.02439 786.107317 914.107317 871.02439 811.707317 871.02439h-599.414634zM102.4 371.512195c0 87.414634 12.487805 159.843902 39.960976 219.785366 19.980488 44.956098 44.956098 82.419512 79.921951 117.385366s69.931707 59.941463 109.892683 77.42439c52.44878 22.478049 114.887805 34.965854 184.819512 34.965854 127.37561 0 227.278049-39.960976 304.702439-117.385366s114.887805-187.317073 114.887805-327.180488c0-137.365854-37.463415-247.258537-112.390244-324.682927s-174.829268-117.385366-302.204878-117.385366-229.77561 39.960976-304.702439 117.385366S102.4 234.146341 102.4 371.512195z m177.326829 4.995122c0-97.404878 22.478049-169.834146 67.434147-219.785366s102.4-74.926829 169.834146-74.926829 124.878049 24.97561 169.834146 74.926829 67.434146 124.878049 67.434147 224.780488c0 97.404878-22.478049 172.331707-64.936586 219.785366S589.42439 671.219512 519.492683 671.219512s-129.873171-24.97561-172.331707-72.429268-67.434146-122.380488-67.434147-222.282927z"  horiz-adv-x="1024" />
      
      <glyph glyph-name="N" unicode="&#58922;" d="M811.707317-128h-599.414634C94.907317-128 0-33.092682999999965 0 84.29268300000001v599.414634C0 801.092683 94.907317 896 212.292683 896h599.414634C929.092683 896 1024 801.092683 1024 683.707317v-599.414634c0-117.385366-94.907317-212.292683-212.292683-212.292683zM212.292683 871.02439C109.892683 871.02439 24.97561 786.107317 24.97561 683.707317v-599.414634C24.97561-18.107316999999966 109.892683-103.02439000000004 212.292683-103.02439000000004h599.414634c102.4 0 187.317073 84.917073 187.317073 187.317073v599.414634C999.02439 786.107317 914.107317 871.02439 811.707317 871.02439h-599.414634zM112.390244-53.073171l52.44878 97.404878V806.087805h167.336586l352.156097-574.439025v574.439025h159.843903V-53.073171h-172.331708L324.682927 506.380488V-53.073171H244.760976z"  horiz-adv-x="1024" />
      
      <glyph glyph-name="L" unicode="&#58923;" d="M811.707317-128h-599.414634C94.907317-128 0-33.092683 0 84.292683v599.414634C0 801.092683 94.907317 896 212.292683 896h599.414634C929.092683 896 1024 801.092683 1024 683.707317v-599.414634c0-117.385366-94.907317-212.292683-212.292683-212.292683zM212.292683 871.02439C109.892683 871.02439 24.97561 786.107317 24.97561 683.707317v-599.414634C24.97561-18.107317 109.892683-103.02439 212.292683-103.02439h599.414634c102.4 0 187.317073 84.917073 187.317073 187.317073v599.414634C999.02439 786.107317 914.107317 871.02439 811.707317 871.02439h-599.414634zM242.263415-28.097561V823.570732h172.331707v-706.809756h379.629268l152.35122 34.965853-99.902439-144.858536V-28.097561h-74.92683z"  horiz-adv-x="1024" />
      
      <glyph glyph-name="P" unicode="&#58924;" d="M811.707317-128h-599.414634C94.907317-128 0-33.092682999999965 0 84.29268300000001v599.414634C0 801.092683 94.907317 896 212.292683 896h599.414634C929.092683 896 1024 801.092683 1024 683.707317v-599.414634c0-117.385366-94.907317-212.292683-212.292683-212.292683zM212.292683 871.02439C109.892683 871.02439 24.97561 786.107317 24.97561 683.707317v-599.414634C24.97561-18.107316999999966 109.892683-103.02439000000004 212.292683-103.02439000000004h599.414634c102.4 0 187.317073 84.917073 187.317073 187.317073v599.414634C999.02439 786.107317 914.107317 871.02439 811.707317 871.02439h-599.414634zM117.385366-53.073171l94.907317 72.429269V806.087805h277.229268c104.897561 0 174.829268-4.995122 204.8-12.487805 49.95122-12.487805 89.912195-39.960976 122.380488-84.917073 32.468293-42.458537 49.95122-99.902439 49.95122-167.336586 0-52.44878-9.990244-97.404878-27.473171-132.370731s-42.458537-64.936585-72.429268-84.917073-59.941463-34.965854-89.912196-39.960976c-39.960976-9.990244-99.902439-12.487805-177.326829-12.487805h-112.390244v-324.682927H117.385366zM384.62439 658.731707v-244.760975h94.907317c67.434146 0 114.887805 4.995122 137.365854 12.487805s39.960976 22.478049 54.946341 42.458536 19.980488 42.458537 19.980488 67.434147c0 32.468293-9.990244 57.443902-27.47317 77.42439s-42.458537 32.468293-69.931708 37.463414c-19.980488 4.995122-62.439024 4.995122-124.878049 4.995122h-84.917073z"  horiz-adv-x="1024" />
      
      <glyph glyph-name="I" unicode="&#58925;" d="M811.707317-128h-599.414634C94.907317-128 0-33.092682999999965 0 84.29268300000001v599.414634C0 801.092683 94.907317 896 212.292683 896h599.414634C929.092683 896 1024 801.092683 1024 683.707317v-599.414634c0-117.385366-94.907317-212.292683-212.292683-212.292683zM212.292683 871.02439C109.892683 871.02439 24.97561 786.107317 24.97561 683.707317v-599.414634C24.97561-18.107316999999966 109.892683-103.02439000000004 212.292683-103.02439000000004h599.414634c102.4 0 187.317073 84.917073 187.317073 187.317073v599.414634C999.02439 786.107317 914.107317 871.02439 811.707317 871.02439h-599.414634zM432.078049-53.073171V806.087805h172.331707V-53.073171z"  horiz-adv-x="1024" />
      
      <glyph glyph-name="Q" unicode="&#58927;" d="M811.707317-128h-599.414634C94.907317-128 0-33.092682999999965 0 84.29268300000001v599.414634C0 801.092683 94.907317 896 212.292683 896h599.414634C929.092683 896 1024 801.092683 1024 683.707317v-599.414634c0-117.385366-94.907317-212.292683-212.292683-212.292683zM212.292683 871.02439C109.892683 871.02439 24.97561 786.107317 24.97561 683.707317v-599.414634C24.97561-18.107316999999966 109.892683-103.02439000000004 212.292683-103.02439000000004h599.414634c102.4 0 187.317073 84.917073 187.317073 187.317073v599.414634C999.02439 786.107317 914.107317 871.02439 811.707317 871.02439h-599.414634zM801.717073 81.79512199999999c42.458537-29.970732 139.863415-84.917073 189.814634-102.4l-114.887805-92.409756c-24.97561 7.492683-52.44878 17.482927-77.42439 32.468293-4.995122 2.497561-44.956098 27.473171-114.887805 74.926829-57.443902-24.97561-117.385366-37.463415-187.317073-37.463415-132.370732 0-234.770732 39.960976-309.697561 117.385366S74.926829 261.619512 74.926829 401.482927s37.463415 249.756098 112.390244 327.180488S364.643902 846.04878 492.019512 846.04878s227.278049-39.960976 302.204878-117.385365 112.390244-187.317073 112.390244-327.180488c0-74.926829-9.990244-139.863415-29.970732-194.809756-14.985366-44.956098-39.960976-84.917073-74.926829-124.878049z m-137.365853 97.404878c22.478049 24.97561 39.960976 57.443902 49.951219 94.907317s17.482927 79.921951 17.482927 127.37561c0 99.902439-22.478049 172.331707-64.936586 222.282927S564.44878 696.195122 494.517073 696.195122s-127.37561-24.97561-172.331707-74.926829-64.936585-122.380488-64.936586-222.282927 22.478049-174.829268 64.936586-224.780488 99.902439-74.926829 167.336585-74.926829c24.97561 0 47.453659 4.995122 69.931708 12.487805-34.965854 22.478049-69.931707 39.960976-107.395122 54.946341l47.453658 99.902439c57.443902-19.980488 112.390244-49.95122 164.839025-87.414634z"  horiz-adv-x="1024" />
      
      <glyph glyph-name="R" unicode="&#58928;" d="M811.707317-128h-599.414634C94.907317-128 0-33.092682999999965 0 84.29268300000001v599.414634C0 801.092683 94.907317 896 212.292683 896h599.414634C929.092683 896 1024 801.092683 1024 683.707317v-599.414634c0-117.385366-94.907317-212.292683-212.292683-212.292683zM212.292683 871.02439C109.892683 871.02439 24.97561 786.107317 24.97561 683.707317v-599.414634C24.97561-18.107316999999966 109.892683-103.02439000000004 212.292683-103.02439000000004h599.414634c102.4 0 187.317073 84.917073 187.317073 187.317073v599.414634C999.02439 786.107317 914.107317 871.02439 811.707317 871.02439h-599.414634zM162.341463-53.073171V806.087805h364.643903c92.409756 0 157.346341-7.492683 199.804878-22.478049s74.926829-42.458537 99.902439-82.419512 37.463415-84.917073 37.463415-134.868293c0-64.936585-19.980488-117.385366-57.443903-159.843902s-94.907317-67.434146-169.834146-79.921951c37.463415-22.478049 67.434146-44.956098 92.409756-72.429269s57.443902-72.429268 97.404878-139.863414c29.970732-47.453659 52.44878-82.419512 64.936585-104.897561 7.492683-14.985366 37.463415-34.965854 89.912195-62.439025H724.292683l-124.878049 187.317073c-44.956098 67.434146-74.926829 109.892683-92.409756 127.37561s-34.965854 29.970732-52.44878 34.965854-47.453659 9.990244-87.414635 9.990244h-34.965853V-53.073171H162.341463z m174.829269 494.517073h127.375609c82.419512 0 134.868293 2.497561 154.848781 9.990244s37.463415 19.980488 47.453658 37.463415 17.482927 37.463415 17.482927 64.936585c0 29.970732-7.492683 52.44878-22.478048 69.931708S624.390244 653.736585 596.917073 656.234146c-14.985366 2.497561-54.946341 2.497561-127.37561 2.497561h-134.868292v-217.287805z"  horiz-adv-x="1024" />
      
      <glyph glyph-name="T" unicode="&#58929;" d="M811.707317-128h-599.414634C94.907317-128 0-33.092682999999965 0 84.29268300000001v599.414634C0 801.092683 94.907317 896 212.292683 896h599.414634C929.092683 896 1024 801.092683 1024 683.707317v-599.414634c0-117.385366-94.907317-212.292683-212.292683-212.292683zM212.292683 871.02439C109.892683 871.02439 24.97561 786.107317 24.97561 683.707317v-599.414634C24.97561-18.107316999999966 109.892683-103.02439000000004 212.292683-103.02439000000004h599.414634c102.4 0 187.317073 84.917073 187.317073 187.317073v599.414634C999.02439 786.107317 914.107317 871.02439 811.707317 871.02439h-599.414634zM429.580488-53.073171V658.731707H174.829268V806.087805h721.795122l-39.960975-64.936585v-82.419513H604.409756V-53.073171z"  horiz-adv-x="1024" />
      
      <glyph glyph-name="S" unicode="&#58930;" d="M811.707317-128h-599.414634C94.907317-128 0-33.092682999999965 0 84.29268300000001v599.414634C0 801.092683 94.907317 896 212.292683 896h599.414634C929.092683 896 1024 801.092683 1024 683.707317v-599.414634c0-117.385366-94.907317-212.292683-212.292683-212.292683zM212.292683 871.02439C109.892683 871.02439 24.97561 786.107317 24.97561 683.707317v-599.414634C24.97561-18.107316999999966 109.892683-103.02439000000004 212.292683-103.02439000000004h599.414634c102.4 0 187.317073 84.917073 187.317073 187.317073v599.414634C999.02439 786.107317 914.107317 871.02439 811.707317 871.02439h-599.414634zM124.878049 231.64878h92.409756c27.473171 2.497561 64.936585 7.492683 117.385366 12.487805 9.990244-57.443902 29.970732-97.404878 62.439024-124.878048 29.970732-27.473171 72.429268-39.960976 124.878049-39.960976 54.946341 0 97.404878 12.487805 127.37561 34.965854s42.458537 52.44878 42.458536 82.419512c0 19.980488-4.995122 37.463415-17.482927 52.44878s-32.468293 27.473171-62.439024 37.463415c-19.980488 7.492683-67.434146 19.980488-139.863415 37.463415-92.409756 22.478049-157.346341 52.44878-194.809756 84.917073C224.780488 453.931707 199.804878 511.37561 199.804878 581.307317c0 44.956098 12.487805 84.917073 37.463415 122.380488s59.941463 67.434146 107.395122 87.414634S447.063415 821.073171 514.497561 821.073171c107.395122 0 189.814634-22.478049 242.263415-69.931708s82.419512-109.892683 84.917073-189.814634l-172.331708-7.492683c-7.492683 44.956098-22.478049 74.926829-47.453658 94.907317s-59.941463 29.970732-109.892683 29.970732c-49.95122 0-89.912195-9.990244-117.385366-29.970732-17.482927-12.487805-27.473171-29.970732-27.473171-52.44878 0-19.980488 7.492683-37.463415 24.97561-52.448781 22.478049-17.482927 74.926829-37.463415 159.843903-57.443902s147.356098-39.960976 187.317073-62.439024 72.429268-49.95122 94.907317-87.414635 34.965854-82.419512 34.965854-137.365853c0-49.95122-12.487805-94.907317-39.960976-137.365854-27.473171-42.458537-64.936585-74.926829-114.887805-94.907317s-112.390244-32.468293-187.317073-32.468293c-107.395122 0-192.312195 24.97561-249.756098 74.92683-44.956098 39.960976-77.42439 92.409756-92.409756 159.843902-9.990244 14.985366-57.443902 39.960976-59.941463 62.439024z"  horiz-adv-x="1024" />
      
      <glyph glyph-name="U" unicode="&#58931;" d="M811.707317-128h-599.414634C94.907317-128 0-33.092682999999965 0 84.29268300000001v599.414634C0 801.092683 94.907317 896 212.292683 896h599.414634C929.092683 896 1024 801.092683 1024 683.707317v-599.414634c0-117.385366-94.907317-212.292683-212.292683-212.292683zM212.292683 871.02439C109.892683 871.02439 24.97561 786.107317 24.97561 683.707317v-599.414634C24.97561-18.107316999999966 109.892683-103.02439000000004 212.292683-103.02439000000004h599.414634c102.4 0 187.317073 84.917073 187.317073 187.317073v599.414634C999.02439 786.107317 914.107317 871.02439 811.707317 871.02439h-599.414634zM124.878049 806.087805h209.795122v-464.546342c0-74.926829 2.497561-122.380488 7.492683-142.360975 7.492683-34.965854 24.97561-62.439024 52.44878-84.917073s64.936585-32.468293 114.887805-32.468293c49.95122 0 87.414634 9.990244 112.390244 29.970732s39.960976 44.956098 44.956097 74.926829 7.492683 77.42439 7.492683 144.858537v474.536585h204.8c-22.478049-29.970732-32.468293-54.946341-32.468292-69.931707v-382.12683c0-102.4-4.995122-174.829268-14.985366-217.287805s-27.473171-77.42439-52.448781-107.395122c-24.97561-29.970732-59.941463-52.44878-99.902439-69.931707s-97.404878-24.97561-164.839024-24.97561c-82.419512 0-144.858537 9.990244-187.317073 27.473171s-74.926829 42.458537-99.902439 74.926829-42.458537 59.941463-49.95122 92.409756c-12.487805 49.95122-17.482927 122.380488-17.482927 217.287805V748.643902c0 12.487805-9.990244 32.468293-34.965853 57.443903z"  horiz-adv-x="1024" />
      
      <glyph glyph-name="X" unicode="&#58932;" d="M811.707317-128h-599.414634C94.907317-128 0-33.092683 0 84.292683v599.414634C0 801.092683 94.907317 896 212.292683 896h599.414634C929.092683 896 1024 801.092683 1024 683.707317v-599.414634c0-117.385366-94.907317-212.292683-212.292683-212.292683zM212.292683 871.02439C109.892683 871.02439 24.97561 786.107317 24.97561 683.707317v-599.414634C24.97561-18.107317 109.892683-103.02439 212.292683-103.02439h599.414634c102.4 0 187.317073 84.917073 187.317073 187.317073v599.414634C999.02439 786.107317 914.107317 871.02439 811.707317 871.02439h-599.414634zM89.912195-53.073171l27.473171 24.97561 274.731707 422.087805L127.37561 806.087805h202.302439l172.331707-277.229268 169.834146 277.229268h199.804878L604.409756 388.995122l272.234146-412.097561 34.965854-19.980488-42.458536-9.990244h-179.824391L499.512195 244.136585 307.2-53.073171H129.873171z"  horiz-adv-x="1024" />
      
      <glyph glyph-name="W" unicode="&#58933;" d="M811.707317-128h-599.414634C94.907317-128 0-33.092682999999965 0 84.29268300000001v599.414634C0 801.092683 94.907317 896 212.292683 896h599.414634C929.092683 896 1024 801.092683 1024 683.707317v-599.414634c0-117.385366-94.907317-212.292683-212.292683-212.292683zM212.292683 871.02439C109.892683 871.02439 24.97561 786.107317 24.97561 683.707317v-599.414634C24.97561-18.107316999999966 109.892683-103.02439000000004 212.292683-103.02439000000004h599.414634c102.4 0 187.317073 84.917073 187.317073 187.317073v599.414634C999.02439 786.107317 914.107317 871.02439 811.707317 871.02439h-599.414634zM312.195122-78.04877999999997L122.380488 781.112195h124.878049l114.887804-589.42439L449.560976 781.112195h144.858536l84.917073-599.414634 112.390244 599.414634h124.878049L726.790244-78.04877999999997h-107.395122l-99.902439 641.87317L422.087805-78.04877999999997z"  horiz-adv-x="1024" />
      
      <glyph glyph-name="V" unicode="&#58934;" d="M811.707317-128h-599.414634C94.907317-128 0-33.092683 0 84.292683v599.414634C0 801.092683 94.907317 896 212.292683 896h599.414634C929.092683 896 1024 801.092683 1024 683.707317v-599.414634c0-117.385366-94.907317-212.292683-212.292683-212.292683zM212.292683 871.02439C109.892683 871.02439 24.97561 786.107317 24.97561 683.707317v-599.414634C24.97561-18.107317 109.892683-103.02439 212.292683-103.02439h599.414634c102.4 0 187.317073 84.917073 187.317073 187.317073v599.414634C999.02439 786.107317 914.107317 871.02439 811.707317 871.02439h-599.414634zM407.102439-53.073171L99.902439 806.087805h187.317073l217.287805-636.878049 209.795122 636.878049h212.292683l-42.458537-42.458537L591.921951-53.073171z"  horiz-adv-x="1024" />
      
      <glyph glyph-name="Y" unicode="&#58935;" d="M811.707317-128h-599.414634C94.907317-128 0-33.092683 0 84.292683v599.414634C0 801.092683 94.907317 896 212.292683 896h599.414634C929.092683 896 1024 801.092683 1024 683.707317v-599.414634c0-117.385366-94.907317-212.292683-212.292683-212.292683zM212.292683 871.02439C109.892683 871.02439 24.97561 786.107317 24.97561 683.707317v-599.414634C24.97561-18.107317 109.892683-103.02439 212.292683-103.02439h599.414634c102.4 0 187.317073 84.917073 187.317073 187.317073v599.414634C999.02439 786.107317 914.107317 871.02439 811.707317 871.02439h-599.414634zM414.595122-53.073171l22.478049 47.453659V309.073171L122.380488 806.087805h204.8l199.804878-339.668293 199.804878 339.668293h199.804878l-317.190244-499.512195v-312.195122l19.980488-47.453659H474.536585z"  horiz-adv-x="1024" />
      
      <glyph glyph-name="Z" unicode="&#58936;" d="M811.707317-128h-599.414634C94.907317-128 0-33.092683 0 84.292683v599.414634C0 801.092683 94.907317 896 212.292683 896h599.414634C929.092683 896 1024 801.092683 1024 683.707317v-599.414634c0-117.385366-94.907317-212.292683-212.292683-212.292683zM212.292683 871.02439C109.892683 871.02439 24.97561 786.107317 24.97561 683.707317v-599.414634C24.97561-18.107317 109.892683-103.02439 212.292683-103.02439h599.414634c102.4 0 187.317073 84.917073 187.317073 187.317073v599.414634C999.02439 786.107317 914.107317 871.02439 811.707317 871.02439h-599.414634zM162.341463-53.073171v157.346342L614.4 658.731707h-399.609756V806.087805h626.887805V671.219512L372.136585 91.785366h487.024391V21.853659l107.395122-74.92683h-177.32683z"  horiz-adv-x="1024" />
      
      <glyph glyph-name="angle-double-down" unicode="&#58889;" d="M797.147429 402.285714a19.748571 19.748571 0 0 0-5.705143-13.129143L525.165714 122.88c-3.437714-3.437714-8.557714-5.705143-13.129143-5.705143s-9.728 2.304-13.129142 5.705143l-266.276572 266.276571c-3.437714 3.437714-5.705143 8.557714-5.705143 13.129143s2.304 9.728 5.705143 13.129143l28.562286 28.562286a18.578286 18.578286 0 0 0 13.129143 5.705143 19.748571 19.748571 0 0 0 13.129143-5.705143l224.585142-224.585143 224.585143 224.585143c3.437714 3.437714 8.557714 5.705143 13.129143 5.705143s9.728-2.304 13.129143-5.705143l28.562286-28.562286a19.602286 19.602286 0 0 0 5.705143-13.129143z m0 219.428572a19.748571 19.748571 0 0 0-5.705143-13.129143L525.165714 342.308571c-3.437714-3.437714-8.557714-5.705143-13.129143-5.705142s-9.728 2.304-13.129142 5.705142L232.630857 608.585143c-3.437714 3.437714-5.705143 8.557714-5.705143 13.129143s2.304 9.728 5.705143 13.129143l28.562286 28.562285a18.578286 18.578286 0 0 0 13.129143 5.705143 19.748571 19.748571 0 0 0 13.129143-5.705143l224.585142-224.585143 224.585143 224.585143c3.437714 3.437714 8.557714 5.705143 13.129143 5.705143s9.728-2.304 13.129143-5.705143l28.562286-28.562285a19.602286 19.602286 0 0 0 5.705143-13.129143z"  horiz-adv-x="1024" />
      
      <glyph glyph-name="angle-double-left" unicode="&#58890;" d="M559.433143 109.714286a19.748571 19.748571 0 0 0-5.705143-13.129143l-28.562286-28.562286c-3.437714-3.437714-8.557714-5.705143-13.129143-5.705143s-9.728 2.304-13.129142 5.705143L232.630857 334.299429C229.193143 337.737143 226.925714 342.857143 226.925714 347.428571s2.304 9.728 5.705143 13.129143L498.907429 626.834286c3.437714 3.437714 8.557714 5.705143 13.129142 5.705143s9.728-2.304 13.129143-5.705143l28.562286-28.562286c3.437714-3.437714 5.705143-8.557714 5.705143-13.129143s-2.304-9.728-5.705143-13.129143L329.142857 347.428571l224.585143-224.585142a19.602286 19.602286 0 0 0 5.705143-13.129143z m219.428571 0a19.748571 19.748571 0 0 0-5.705143-13.129143l-28.562285-28.562286c-3.437714-3.437714-8.557714-5.705143-13.129143-5.705143s-9.728 2.304-13.129143 5.705143l-266.276571 266.276572c-3.437714 3.437714-5.705143 8.557714-5.705143 13.129142s2.304 9.728 5.705143 13.129143l266.276571 266.276572c3.437714 3.437714 8.557714 5.705143 13.129143 5.705143s9.728-2.304 13.129143-5.705143l28.562285-28.562286c3.437714-3.437714 5.705143-8.557714 5.705143-13.129143s-2.304-9.728-5.705143-13.129143L548.571429 347.428571l224.585142-224.585142a19.602286 19.602286 0 0 0 5.705143-13.129143z"  horiz-adv-x="1024" />
      
      <glyph glyph-name="angle-down" unicode="&#58891;" d="M797.147429 475.428571a19.748571 19.748571 0 0 0-5.705143-13.129142L525.165714 196.022857c-3.437714-3.437714-8.557714-5.705143-13.129143-5.705143s-9.728 2.304-13.129142 5.705143l-266.276572 266.276572c-3.437714 3.437714-5.705143 8.557714-5.705143 13.129142s2.304 9.728 5.705143 13.129143l28.562286 28.562286a18.578286 18.578286 0 0 0 13.129143 5.705143 19.748571 19.748571 0 0 0 13.129143-5.705143l224.585142-224.585143 224.585143 224.585143c3.437714 3.437714 8.557714 5.705143 13.129143 5.705143s9.728-2.304 13.129143-5.705143l28.562286-28.562286a19.602286 19.602286 0 0 0 5.705143-13.129143z"  horiz-adv-x="1024" />
      
      <glyph glyph-name="angle-right" unicode="&#58892;" d="M682.002286 347.428571a19.748571 19.748571 0 0 0-5.705143-13.129142L410.020571 68.022857c-3.437714-3.437714-8.557714-5.705143-13.129142-5.705143s-9.728 2.304-13.129143 5.705143l-28.562286 28.562286a18.578286 18.578286 0 0 0-5.705143 13.129143 19.748571 19.748571 0 0 0 5.705143 13.129143L579.785143 347.428571 355.2 572.013714C351.762286 575.451429 349.494857 580.571429 349.494857 585.142857s2.304 9.728 5.705143 13.129143l28.562286 28.562286c3.437714 3.437714 8.557714 5.705143 13.129143 5.705143s9.728-2.304 13.129142-5.705143l266.276572-266.276572a19.602286 19.602286 0 0 0 5.705143-13.129143z"  horiz-adv-x="1024" />
      
      <glyph glyph-name="angle-left" unicode="&#58893;" d="M669.147429 585.142857a19.748571 19.748571 0 0 0-5.705143-13.129143L438.857143 347.428571l224.585143-224.585142c3.437714-3.437714 5.705143-8.557714 5.705143-13.129143s-2.304-9.728-5.705143-13.129143l-28.562286-28.562286c-3.437714-3.437714-8.557714-5.705143-13.129143-5.705143s-9.728 2.304-13.129143 5.705143L342.345143 334.299429C338.907429 337.737143 336.64 342.857143 336.64 347.428571s2.304 9.728 5.705143 13.129143L608.621714 626.834286c3.437714 3.437714 8.557714 5.705143 13.129143 5.705143s9.728-2.304 13.129143-5.705143l28.562286-28.562286a18.578286 18.578286 0 0 0 5.705143-13.129143z"  horiz-adv-x="1024" />
      
      <glyph glyph-name="angle-up" unicode="&#58894;" d="M797.147429 219.428571a19.748571 19.748571 0 0 0-5.705143-13.129142l-28.562286-28.562286a18.578286 18.578286 0 0 0-13.129143-5.705143 19.748571 19.748571 0 0 0-13.129143 5.705143l-224.585143 224.585143L287.451429 177.737143c-3.437714-3.437714-8.557714-5.705143-13.129143-5.705143s-9.728 2.304-13.129143 5.705143l-28.562286 28.562286c-3.437714 3.437714-5.705143 8.557714-5.705143 13.129142s2.304 9.728 5.705143 13.129143l266.276572 266.276572c3.437714 3.437714 8.557714 5.705143 13.129142 5.705143s9.728-2.304 13.129143-5.705143l266.276572-266.276572a19.602286 19.602286 0 0 0 5.705143-13.129143z"  horiz-adv-x="1024" />
      
      <glyph glyph-name="bookmark" unicode="&#58926;" d="M811.446857 822.857143c8.557714 0 17.152-1.718857 25.161143-5.156572a63.268571 63.268571 0 0 0 41.142857-58.843428v-736.585143a63.268571 63.268571 0 0 0-41.142857-58.843429 63.158857 63.158857 0 0 0-25.161143-4.571428 69.485714 69.485714 0 0 0-47.433143 18.285714L512 219.428571l-252.013714-242.285714a69.997714 69.997714 0 0 0-47.433143-18.870857c-8.557714 0-17.152 1.718857-25.161143 5.156571a63.268571 63.268571 0 0 0-41.142857 58.843429V758.857143a63.268571 63.268571 0 0 0 41.142857 58.843428c8.009143 3.437714 16.566857 5.156571 25.161143 5.156572h598.857143z"  horiz-adv-x="1024" />
      
      <glyph glyph-name="caret-down" unicode="&#58937;" d="M804.571429 493.714286a36.205714 36.205714 0 0 0-10.861715-25.709715l-256-256C530.870857 205.165714 521.691429 201.142857 512 201.142857s-18.870857 3.986286-25.709714 10.861714l-256 256A36.425143 36.425143 0 0 0 219.428571 493.714286c0 20.004571 16.566857 36.571429 36.571429 36.571428h512c20.004571 0 36.571429-16.566857 36.571429-36.571428z"  horiz-adv-x="1024" />
      
      <glyph glyph-name="caret-left" unicode="&#58938;" d="M676.571429 640v-512c0-20.004571-16.566857-36.571429-36.571429-36.571429a36.205714 36.205714 0 0 0-25.709714 10.861715l-256 256C351.451429 365.129143 347.428571 374.308571 347.428571 384s3.986286 18.870857 10.861715 25.709714l256 256A36.425143 36.425143 0 0 0 640 676.571429c20.004571 0 36.571429-16.566857 36.571429-36.571429z"  horiz-adv-x="1024" />
      
      <glyph glyph-name="caret-right" unicode="&#58939;" d="M676.571429 384a36.205714 36.205714 0 0 0-10.861715-25.709714l-256-256A36.425143 36.425143 0 0 0 384 91.428571c-20.004571 0-36.571429 16.566857-36.571429 36.571429V640c0 20.004571 16.566857 36.571429 36.571429 36.571429a36.205714 36.205714 0 0 0 25.709714-10.861715l256-256A36.425143 36.425143 0 0 0 676.571429 384z"  horiz-adv-x="1024" />
      
      <glyph glyph-name="caret-up" unicode="&#58941;" d="M804.571429 201.142857c0-20.004571-16.566857-36.571429-36.571429-36.571428H256c-20.004571 0-36.571429 16.566857-36.571429 36.571428a36.205714 36.205714 0 0 0 10.861715 25.709714l256 256C493.129143 489.691429 502.308571 493.714286 512 493.714286s18.870857-3.986286 25.709714-10.861715l256-256A36.425143 36.425143 0 0 0 804.571429 201.142857z"  horiz-adv-x="1024" />
      
      <glyph glyph-name="check" unicode="&#58951;" d="M954.843429 572.562286c0-14.299429-5.705143-28.562286-16.018286-38.838857L447.378286 42.276571c-10.276571-10.276571-24.576-16.018286-38.838857-16.018285s-28.562286 5.705143-38.838858 16.018285l-284.562285 284.562286c-10.276571 10.276571-16.018286 24.576-16.018286 38.838857s5.705143 28.562286 16.018286 38.838857l77.714285 77.714286c10.276571 10.276571 24.576 16.018286 38.838858 16.018286s28.562286-5.705143 38.838857-16.018286l168.009143-168.557714 374.857142 375.442286c10.276571 10.276571 24.576 16.018286 38.838858 16.018285s28.562286-5.705143 38.838857-16.018285l77.714285-77.714286c10.276571-10.276571 16.018286-24.576 16.018286-38.838857z"  horiz-adv-x="1024" />
      
      <glyph glyph-name="close" unicode="&#58963;" d="M851.419429 140.580571c0-14.299429-5.705143-28.562286-16.018286-38.838857l-77.714286-77.714285c-10.276571-10.276571-24.576-16.018286-38.838857-16.018286s-28.562286 5.705143-38.838857 16.018286L512 192.036571l-168.009143-168.009142c-10.276571-10.276571-24.576-16.018286-38.838857-16.018286s-28.562286 5.705143-38.838857 16.018286l-77.714286 77.714285c-10.276571 10.276571-16.018286 24.576-16.018286 38.838857s5.705143 28.562286 16.018286 38.838858L356.608 347.428571l-168.009143 168.009143c-10.276571 10.276571-16.018286 24.576-16.018286 38.838857s5.705143 28.562286 16.018286 38.838858l77.714286 77.714285c10.276571 10.276571 24.576 16.018286 38.838857 16.018286s28.562286-5.705143 38.838857-16.018286L512 502.820571l168.009143 168.009143c10.276571 10.276571 24.576 16.018286 38.838857 16.018286s28.562286-5.705143 38.838857-16.018286l77.714286-77.714285c10.276571-10.276571 16.018286-24.576 16.018286-38.838858s-5.705143-28.562286-16.018286-38.838857L667.392 347.428571l168.009143-168.009142c10.276571-10.276571 16.018286-24.576 16.018286-38.838858z"  horiz-adv-x="1024" />
      
      <glyph glyph-name="filter" unicode="&#59024;" d="M911.457097 727.442286a35.986286 35.986286 0 0 0-8.009143-40.009143L621.73824 405.723429V-18.285714c0-14.848-9.142857-28.013714-22.272-33.718857A42.349714 42.349714 0 0 0 585.166811-54.857143a34.084571 34.084571 0 0 0-25.709714 10.861714l-146.285714 146.285715A36.425143 36.425143 0 0 0 402.309669 128v277.723429L120.599954 687.433143a35.986286 35.986286 0 0 0-8.009143 40.009143C118.295954 740.571429 131.461669 749.714286 146.309669 749.714286h731.428571c14.848 0 28.013714-9.142857 33.718857-22.272z"  horiz-adv-x="1024" />
      
      <glyph glyph-name="info" unicode="&#59071;" d="M694.857143 128v-73.142857c0-20.004571-16.566857-36.571429-36.571429-36.571429H365.714286c-20.004571 0-36.571429 16.566857-36.571429 36.571429v73.142857c0 20.004571 16.566857 36.571429 36.571429 36.571429h36.571428v219.428571H365.714286c-20.004571 0-36.571429 16.566857-36.571429 36.571429v73.142857c0 20.004571 16.566857 36.571429 36.571429 36.571428h219.428571c20.004571 0 36.571429-16.566857 36.571429-36.571428v-329.142857h36.571428c20.004571 0 36.571429-16.566857 36.571429-36.571429zM621.714286 786.285714v-109.714285c0-20.004571-16.566857-36.571429-36.571429-36.571429H438.857143c-20.004571 0-36.571429 16.566857-36.571429 36.571429V786.285714c0 20.004571 16.566857 36.571429 36.571429 36.571429h146.285714c20.004571 0 36.571429-16.566857 36.571429-36.571429z"  horiz-adv-x="1024" />
      
      <glyph glyph-name="info-circle" unicode="&#59072;" d="M658.285714 109.714286V201.142857c0 10.276571-8.009143 18.285714-18.285714 18.285714H585.142857v292.571429c0 10.276571-8.009143 18.285714-18.285714 18.285714h-182.857143c-10.276571 0-18.285714-8.009143-18.285714-18.285714V420.571429c0-10.276571 8.009143-18.285714 18.285714-18.285715H438.857143v-182.857143H384c-10.276571 0-18.285714-8.009143-18.285714-18.285714v-91.428571c0-10.276571 8.009143-18.285714 18.285714-18.285715h256c10.276571 0 18.285714 8.009143 18.285714 18.285715z m-73.142857 512V713.142857c0 10.276571-8.009143 18.285714-18.285714 18.285714h-109.714286c-10.276571 0-18.285714-8.009143-18.285714-18.285714v-91.428571c0-10.276571 8.009143-18.285714 18.285714-18.285715h109.714286c10.276571 0 18.285714 8.009143 18.285714 18.285715zM950.857143 384c0-242.285714-196.571429-438.857143-438.857143-438.857143S73.142857 141.714286 73.142857 384 269.714286 822.857143 512 822.857143s438.857143-196.571429 438.857143-438.857143z"  horiz-adv-x="1024" />
      
      <glyph glyph-name="minus" unicode="&#59106;" d="M914.285714 475.428571v-109.714285a54.857143 54.857143 0 0 0-54.857143-54.857143h-694.857142A54.857143 54.857143 0 0 0 109.714286 365.714286v109.714285A54.857143 54.857143 0 0 0 164.571429 530.285714h694.857142a54.857143 54.857143 0 0 0 54.857143-54.857143z"  horiz-adv-x="1024" />
      
      <glyph glyph-name="pencil-square" unicode="&#59119;" d="M303.981714 262.838857l86.857143-86.857143-29.696-29.696H329.142857V201.142857H274.285714v32z m236.580572 222.866286c4.571429-3.986286 3.437714-11.995429-1.718857-17.152l-166.290286-166.290286c-5.156571-5.156571-13.129143-6.290286-17.152-1.718857-4.571429 3.986286-3.437714 11.995429 1.718857 17.152l166.290286 166.290286c5.156571 5.156571 13.129143 6.290286 17.152 1.718857zM384 91.428571l310.857143 310.857143L530.285714 566.857143 219.428571 256V91.428571h164.571429z m347.428571 347.428572l52.553143 52.553143a55.552 55.552 0 0 1 0 77.714285l-86.857143 86.857143a55.552 55.552 0 0 1-77.714285 0L566.857143 603.428571z m219.428572 219.428571v-548.571428c0-90.843429-73.728-164.571429-164.571429-164.571429h-548.571428A164.644571 164.644571 0 0 0 73.142857 109.714286v548.571428C73.142857 749.129143 146.870857 822.857143 237.714286 822.857143h548.571428C877.129143 822.857143 950.857143 749.129143 950.857143 658.285714z"  horiz-adv-x="1024" />
      
      </font>
</defs>
</svg>
